<svg viewBox="0 0 1280 800" xmlns="http://www.w3.org/2000/svg" fill-rule="evenodd" clip-rule="evenodd" stroke-linejoin="round" stroke-miterlimit="2"><path d="M328.341 88.343h311.656v119.564c20.016 0 36.265 16.25 36.265 36.264 0 20.015-16.249 36.264-36.265 36.264v119.564H520.435c0 20.014-16.25 36.264-36.266 36.264-20.015 0-36.264-16.25-36.264-36.264H328.341V88.343z" fill="#f7df1e"/><path d="M639.997 207.907h.235l.234.002.234.004.234.005.231.007.234.01.232.008.232.01.23.013.232.015.23.014.23.018.23.018.23.02.23.02.228.023.228.023.228.026.227.027.228.028.227.03.225.032.226.032.225.032.225.036.224.036.223.038.225.04.223.04.221.042.223.043.221.045.222.045.219.049.221.048.22.05.219.051.217.052.218.054.218.056.217.057.216.058.216.06.215.059.216.063.214.063.214.064.212.065.212.067.213.068.212.07.21.07.21.072.21.074.21.073.208.076.209.077.206.08.207.079.207.08.205.081.205.083.203.085.205.086.203.086.202.088.201.088.201.092.202.09.2.094.199.093.198.095.198.096.197.097.196.099.196.1.195.101.194.1.194.105.194.104.193.105.19.106.19.108.191.11.19.109.188.11.189.111.187.113.187.115.185.115.185.117.185.117.184.119.181.119.184.122.18.12.181.123.18.124.178.126.178.125.178.126.176.13.176.127.175.132.174.13.175.132.17.133.173.135.171.135.17.137.17.136.167.139.167.138.167.14.166.14.165.143.164.144.164.143.161.146.162.146.162.145.158.15.16.147.159.151.156.15.156.152.155.151.155.155.153.154.152.155.151.157.151.156.15.158.149.158.147.16.148.16.145.162.146.162.144.164.142.163.142.166.142.165.14.167.139.168.138.169.137.169.137.17.134.171.133.171.134.173.133.172.13.175.13.176.13.174.127.178.128.177.126.178.124.18.124.18.122.18.123.18.12.182.12.184.12.183.116.184.117.185.115.187.113.185.114.189.111.187.112.189.11.19.107.189.108.19.106.193.106.192.105.193.102.194.103.194.1.196.1.196.098.196.097.198.097.198.094.197.095.2.092.2.091.2.09.2.09.202.088.203.087.203.084.204.085.205.082.205.083.205.081.206.08.207.076.207.078.208.075.209.076.209.072.208.072.21.072.213.068.21.068.212.067.212.066.214.065.214.063.214.061.214.061.216.06.216.057.217.056.216.056.218.054.217.052.22.052.22.05.218.049.22.046.221.047.221.043.221.045.221.042.223.04.223.039.223.038.225.037.223.034.225.035.226.032.225.03.227.031.226.027.227.027.228.025.227.025.228.022.228.022.23.02.229.017.23.017.23.016.232.014.23.01.232.013.232.01.232.007.232.007.234.005.234.004.233.002.234.001.234-.001.234-.002.235-.004.232-.005.234-.007.234-.008.232-.009.232-.012.232-.01.232-.015.23-.016.232-.017.23-.018.23-.02.228-.021.23-.022.229-.025.228-.025.229-.027.226-.027.227-.03.226-.031.227-.032.225-.035.226-.034.225-.037.223-.038.225-.04.223-.04.223-.04.223-.046.22-.043.222-.047.221-.046.221-.049.22-.05.219-.052.22-.052.219-.054.217-.056.218-.056.216-.057.217-.06.216-.06.216-.062.214-.063.214-.065.214-.066.214-.067.212-.068.212-.068.21-.072.212-.072.21-.072.21-.076.21-.075.208-.078.207-.077.207-.079.207-.08.206-.084.205-.082.205-.085.205-.084.204-.087.203-.088.203-.09.201-.09.202-.091.2-.092.199-.095.2-.094.197-.097.2-.097.196-.099.196-.099.196-.1.196-.103.194-.102.194-.105.193-.106.192-.106.192-.108.191-.108.19-.11.19-.11.188-.112.187-.114.189-.113.185-.115.187-.117.185-.117.184-.118.183-.12.184-.121.181-.123.182-.122.18-.124.18-.124.18-.126.177-.128.177-.127.178-.13.174-.13.176-.13.175-.133.172-.134.173-.133.17-.134.171-.137.171-.137.17-.138.168-.139.168-.14.167-.142.165-.142.166-.142.163-.144.164-.146.162-.145.162-.148.16-.147.16-.15.158-.149.158-.15.156-.152.157-.152.155-.153.154-.155.155-.155.15-.156.154-.156.149-.159.151-.16.147-.158.15-.162.145-.162.146-.161.146-.164.143-.164.144-.165.142-.166.14-.167.14-.167.14-.167.138-.17.136-.17.137-.17.135-.173.135-.171.133-.175.131-.174.131-.175.132-.176.127-.176.13-.178.126-.178.125-.178.126-.18.124-.181.123-.18.122-.184.12-.181.12-.184.118-.185.117-.185.117-.185.115-.187.115-.187.113-.189.111-.189.11-.189.112-.19.107-.19.108-.191.106-.193.107-.194.102-.194.104-.194.101-.195.1-.196.101-.196.1-.197.096-.198.096-.198.095-.2.093-.2.094-.2.09-.202.092-.201.088-.202.088-.203.086-.205.086-.203.085-.205.083-.205.08-.207.081-.207.08-.206.079-.209.077-.208.076-.21.073-.21.074-.21.072-.21.07-.212.07-.213.068-.212.067-.212.065-.214.064-.214.063-.216.063-.215.06-.216.059-.216.058-.217.057-.218.056-.218.054-.217.052-.22.05-.219.05-.221.05-.22.048-.22.045-.222.045-.223.043-.22.041-.224.041-.225.04-.223.038-.224.036-.225.036-.225.032-.226.032-.225.033-.227.029-.228.028-.227.027-.228.026-.228.023-.229.023-.228.02-.23.02-.23.018-.23.018-.23.014-.233.015-.23.012-.232.01-.232.012-.234.007-.231.007-.234.005-.234.004-.234.002h-.235v119.564H520.435l-.002.234-.002.235-.004.232-.005.234-.007.234-.007.232-.01.232-.012.231-.01.232-.015.23-.016.233-.017.23-.018.23-.02.228-.02.23-.022.229-.026.228-.025.228-.027.227-.027.227-.03.226-.03.227-.033.224-.034.227-.035.225-.037.223-.038.224-.04.223-.04.223-.04.223-.046.222-.043.22-.046.222-.047.221-.049.22-.05.219-.052.22-.052.219-.054.217-.056.218-.056.217-.057.216-.06.216-.06.216-.062.214-.063.213-.065.214-.066.214-.067.213-.068.212-.068.21-.072.212-.072.21-.072.21-.076.21-.075.208-.077.207-.078.209-.079.206-.08.205-.084.205-.082.205-.085.205-.084.203-.087.204-.088.203-.09.201-.09.202-.091.2-.092.199-.095.2-.094.199-.097.198-.097.196-.099.196-.099.196-.1.196-.103.194-.102.194-.105.193-.106.192-.106.192-.108.19-.108.192-.11.188-.11.19-.112.188-.113.187-.114.185-.115.187-.117.185-.117.184-.118.183-.12.184-.121.181-.122.182-.123.18-.124.18-.124.18-.126.177-.127.178-.128.176-.13.177-.129.174-.131.174-.133.173-.133.173-.133.172-.135.171-.137.17-.137.168-.138.17-.14.166-.139.168-.142.165-.142.165-.142.164-.146.164-.143.162-.146.161-.147.16-.148.16-.15.159-.148.158-.151.156-.152.157-.152.156-.153.153-.155.155-.154.15-.157.154-.158.15-.157.15-.16.147-.16.15-.16.145-.161.146-.162.145-.164.144-.164.144-.165.142-.165.14-.168.14-.167.14-.167.138-.17.138-.17.135-.17.135-.173.135-.173.133-.173.133-.174.13-.174.13-.177.13-.176.128-.178.125-.178.126-.178.126-.18.124-.181.123-.18.122-.183.12-.182.119-.184.119-.185.116-.185.117-.185.115-.187.116-.187.113-.189.111-.189.112-.189.11-.19.107-.19.108-.193.106-.19.106-.195.105-.194.102-.194.103-.194.1-.196.1-.196.098-.198.097-.198.096-.198.095-.2.093-.199.094-.201.092-.202.09-.201.088-.202.088-.203.086-.205.086-.203.085-.205.083-.205.08-.207.081-.206.08-.207.079-.209.077-.208.075-.209.074-.21.074-.21.072-.211.07-.212.07-.212.068-.213.067-.212.065-.214.064-.214.063-.215.063-.216.06-.216.059-.216.057-.217.058-.218.056-.218.054-.217.052-.22.052-.219.048-.221.049-.22.049-.22.045-.222.044-.223.044-.22.043-.224.04-.225.039-.222.038-.225.036-.225.036-.225.034-.226.032-.225.03-.227.03-.228.028-.227.027-.228.025-.228.024-.229.023-.228.02-.23.02-.23.018-.23.018-.23.014-.233.014-.23.013-.232.01-.232.012-.233.007-.232.007-.234.005-.234.004-.234.002h-.469l-.234-.002-.233-.004-.234-.005-.232-.007-.234-.007-.232-.011-.232-.011-.232-.013-.23-.014-.23-.014-.23-.018-.23-.018-.23-.02-.229-.02-.228-.023-.229-.024-.228-.025-.228-.027-.227-.029-.226-.028-.227-.03-.225-.033-.224-.034-.225-.036-.225-.036-.225-.038-.223-.04-.223-.04-.22-.042-.224-.044-.221-.044-.221-.045-.221-.049-.22-.049-.22-.048-.218-.052-.218-.052-.22-.054-.215-.056-.218-.058-.215-.057-.218-.06-.214-.059-.216-.063-.214-.063-.214-.064-.212-.065-.212-.067-.212-.068-.212-.07-.21-.07-.211-.072-.21-.074-.21-.074-.208-.075-.208-.077-.207-.08-.207-.079-.207-.08-.205-.081-.205-.083-.205-.085-.203-.086-.203-.086-.201-.088-.204-.089-.2-.09-.2-.091-.2-.094-.2-.093-.197-.095-.198-.096-.198-.097-.196-.099-.196-.099-.194-.1-.196-.103-.193-.102-.194-.105-.192-.106-.19-.106-.191-.108-.191-.108-.19-.11-.19-.11-.186-.112-.187-.113-.187-.116-.186-.115-.185-.117-.185-.116-.183-.12-.184-.118-.181-.12-.182-.122-.18-.123-.18-.124-.178-.126-.18-.126-.176-.125-.176-.128-.176-.13-.175-.13-.174-.13-.174-.133-.173-.133-.17-.135-.172-.135-.17-.135-.17-.138-.167-.139-.169-.138-.165-.14-.166-.14-.165-.143-.164-.144-.163-.144-.164-.145-.16-.146-.162-.145-.16-.15-.158-.147-.158-.15-.157-.15-.156-.153-.155-.151-.154-.155-.153-.153-.153-.156-.151-.157-.151-.156-.15-.158-.149-.159-.147-.16-.147-.16-.146-.161-.146-.162-.144-.164-.142-.164-.142-.165-.142-.165-.14-.168-.138-.167-.139-.169-.137-.169-.136-.169-.135-.17-.135-.173-.133-.173-.131-.173-.131-.174-.13-.174-.13-.177-.127-.176-.128-.178-.126-.178-.124-.18-.124-.18-.124-.18-.12-.18-.12-.182-.121-.184-.119-.183-.117-.184-.117-.185-.115-.187-.113-.185-.113-.187-.114-.189-.11-.189-.109-.188-.11-.191-.106-.19-.108-.193-.104-.192-.104-.193-.103-.194-.102-.194-.1-.196-.102-.196-.097-.196-.097-.196-.097-.198-.095-.2-.094-.2-.091-.199-.092-.2-.09-.2-.09-.202-.088-.203-.086-.204-.085-.203-.084-.205-.085-.205-.08-.205-.082-.205-.079-.206-.077-.209-.077-.207-.076-.208-.075-.21-.072-.21-.074-.21-.07-.212-.069-.21-.068-.212-.068-.213-.065-.214-.065-.214-.063-.213-.06-.214-.062-.216-.06-.216-.057-.216-.057-.217-.054-.218-.054-.217-.054-.22-.05-.22-.05-.219-.05-.219-.046-.221-.047-.221-.045-.221-.043-.222-.041-.223-.042-.223-.037-.223-.04-.224-.036-.223-.034-.225-.034-.227-.033-.224-.03-.227-.03-.226-.028-.227-.027-.227-.025-.228-.025-.228-.022-.229-.021-.23-.02-.228-.018-.23-.016-.23-.016-.232-.015-.23-.012-.233-.011-.231-.01-.232-.008-.232-.005-.234-.006-.234-.003-.232-.004-.235v-.234H328.341V88.343h311.656v119.564zM331.342 91.342V397h119.553l.011 3.215.002.214.003.215.006.214.005.214.007.214.01.212.01.214.01.213.014.212.014.212.016.21.016.21.018.213.02.208.02.21.021.211.024.209.025.208.025.209.027.207.029.208.03.207.031.205.032.207.033.205.036.207.036.205.036.203.04.205.039.203.041.203.041.202.044.203.045.201.046.201.047.2.049.201.048.2.05.2.053.197.054.2.054.198.055.196.056.198.058.196.059.196.06.196.062.194.061.194.065.194.065.193.064.194.069.192.068.19.068.193.072.189.07.19.074.191.074.189.075.189.076.187.077.187.08.187.079.185.08.187.081.185.083.184.085.183.084.183.086.184.087.181.088.182.09.18.09.181.091.178.092.18.094.178.095.178.095.176.095.178.1.175.098.176.1.174.1.173.102.175.103.17.102.173.106.17.105.172.108.169.107.169.108.169.11.167.111.167.112.167.111.166.116.165.113.164.117.163.115.162.118.162.12.162.118.16.12.16.12.16.123.158.124.158.124.157.124.155.126.156.128.155.127.152.128.153.13.153.13.151.132.151.131.15.133.149.135.149.135.146.135.147.137.146.136.145.139.144.14.144.138.142.142.142.142.14.143.14.143.139.144.138.144.137.146.137.147.136.148.135.147.133.15.133.15.133.15.132.15.13.153.129.153.13.155.127.155.126.154.126.157.125.156.124.158.123.159.122.158.122.16.119.16.12.162.12.161.116.164.117.164.115.163.115.164.113.167.114.166.111.167.11.167.11.17.11.168.107.17.106.17.106.17.104.173.105.173.102.173.1.174.103.174.1.175.098.176.097.176.097.176.096.179.093.178.094.18.093.18.092.179.09.182.088.18.088.183.088.181.086.184.085.183.083.185.082.186.083.185.081.185.08.187.076.187.078.189.077.189.074.188.075.19.072.19.072.19.07.191.07.192.069.193.066.192.067.193.065.194.062.194.063.196.062.194.059.196.06.198.057.196.057.198.056.198.054.197.052.2.052.198.05.201.05.2.05.201.046.201.045.202.045.201.043.203.043.204.042.203.04.203.037.205.038.205.036.205.034.205.034.207.033.206.03.207.029.207.029.209.027.208.025.209.025.208.023.209.022.21.021.21.02.211.018.21.016.213.015.212.014.212.013.212.012.212.01.214.008.214.008.212.007.216.003.214.004.216.004h.43l.215-.004.214-.004.214-.003.214-.007.214-.008.214-.009.212-.009.213-.012.212-.013.212-.014.212-.015.21-.016.21-.018.211-.02.209-.021.21-.022.209-.023.208-.025.209-.025.209-.027.206-.03.207-.028.207-.03.205-.033.207-.034.205-.034.205-.036.205-.038.203-.038.203-.04.203-.04.203-.044.202-.043.201-.045.201-.045.202-.047.2-.048.199-.05.2-.05.2-.053.197-.052.198-.054.198-.056.196-.057.197-.058.196-.06.195-.058.196-.062.194-.063.192-.062.194-.065.193-.067.192-.066.193-.069.19-.07.19-.07.191-.072.19-.072.188-.075.189-.074.187-.077.187-.078.187-.077.187-.079.185-.08.185-.084.184-.082.185-.083.183-.085.182-.086.181-.088.182-.088.182-.088.18-.09.18-.092.177-.093.18-.094.176-.093.178-.096.176-.097.177-.097.174-.099.174-.1.175-.1.173-.102.172-.102.17-.105.174-.104.169-.106.17-.106.17-.108.168-.11.168-.11.167-.109.165-.111.166-.114.165-.113.164-.115.163-.115.164-.117.162-.117.162-.119.16-.12.16-.12.158-.121.158-.122.158-.123.157-.124.156-.125.155-.126.155-.126.154-.128.153-.13.151-.129.153-.13.15-.13.15-.134.15-.133.147-.133.147-.135.146-.136.146-.137.145-.137.144-.138.144-.138.142-.14.142-.14.14-.143.14-.142.139-.144.138-.144.139-.145.137-.146.134-.147.135-.146.135-.15.133-.149.131-.149.132-.15.131-.152.13-.153.127-.153.128-.152.127-.155.126-.156.124-.155.124-.158.125-.157.12-.158.122-.16.12-.16.12-.16.118-.162.117-.162.117-.162.115-.163.115-.164.113-.165.114-.166.111-.167.112-.167.11-.167.107-.17.108-.168.106-.17.106-.17.106-.171.103-.17.102-.173.103-.175.1-.173.1-.174.098-.176.097-.175.097-.178.096-.176.095-.178.093-.178.092-.18.092-.178.09-.181.09-.18.088-.182.086-.181.086-.184.085-.183.084-.183.083-.184.081-.185.081-.187.08-.185.078-.187.078-.187.075-.187.076-.19.073-.188.072-.19.072-.191.072-.19.068-.191.069-.19.066-.193.067-.194.065-.193.062-.194.063-.194.062-.194.06-.196.06-.196.058-.196.055-.198.056-.196.054-.198.054-.2.052-.197.05-.2.049-.2.048-.2.047-.2.047-.202.045-.201.043-.203.041-.202.042-.203.04-.203.037-.205.038-.203.036-.205.034-.207.034-.205.033-.207.03-.205.03-.207.028-.208.027-.207.027-.209.023-.208.023-.209.024-.21.02-.21.02-.21.017-.211.016-.21.017-.211.014-.212.013-.212.01-.213.011-.214.01-.212.006-.214.006-.214.005-.214.004-.215.002-.214.01-3.215h119.554V277.445l3.214-.01.216-.003.214-.004.214-.003.214-.007.214-.008.214-.008.212-.01.212-.012.213-.013.212-.014.21-.014.212-.017.21-.02.211-.017.209-.022.21-.022.209-.023.208-.025.209-.025.208-.027.207-.029.207-.029.207-.032.205-.03.207-.035.204-.034.205-.036.205-.038.204-.038.203-.04.203-.04.203-.044.202-.043.201-.045.201-.045.202-.046.2-.049.199-.05.2-.05.2-.053.197-.052.198-.054.197-.056.196-.057.198-.058.196-.059.194-.06.196-.06.195-.063.192-.063.194-.065.193-.067.192-.066.192-.068.191-.07.19-.07.191-.073.189-.073.189-.074.189-.074.187-.077.188-.077.186-.078.187-.079.185-.08.185-.084.185-.082.184-.083.183-.084.182-.087.181-.088.182-.088.181-.088.18-.092.18-.09.178-.093.18-.094.176-.093.178-.095.176-.098.177-.097.174-.099.174-.1.175-.1.172-.102.173-.102.17-.104.173-.105.17-.106.17-.108.17-.106.168-.11.168-.11.167-.109.165-.113.166-.112.165-.113.164-.115.163-.115.164-.117.162-.117.162-.118.16-.12.16-.121.158-.12.158-.123.158-.122.157-.124.156-.126.155-.126.154-.126.155-.128.153-.13.151-.129.153-.13.15-.13.15-.133.15-.133.147-.134.147-.134.146-.137.147-.137.144-.136.144-.139.144-.138.142-.14.142-.143.14-.14.14-.144.139-.142.138-.144.139-.145.136-.146.135-.147.135-.148.135-.147.133-.15.131-.149.132-.15.13-.152.13-.153.128-.152.128-.153.127-.155.126-.156.124-.155.124-.158.123-.157.122-.158.122-.16.12-.16.12-.16.118-.162.117-.162.117-.161.117-.164.113-.164.113-.165.113-.166.112-.167.111-.167.11-.167.108-.17.108-.168.106-.17.106-.17.106-.17.103-.174.102-.172.103-.173.1-.172.1-.177.098-.174.097-.176.097-.176.096-.177.095-.178.093-.178.092-.18.092-.18.09-.18.09-.179.088-.182.086-.181.086-.184.085-.183.084-.183.083-.186.08-.185.082-.185.079-.185.08-.187.076-.187.076-.189.075-.187.074-.189.074-.19.07-.19.07-.19.07-.192.069-.193.066-.19.067-.194.064-.193.063-.194.063-.194.061-.194.062-.196.059-.196.057-.196.056-.196.056-.198.054-.198.054-.2.052-.197.05-.2.049-.2.048-.199.047-.201.047-.202.045-.201.043-.203.041-.202.042-.203.04-.205.037-.203.038-.205.036-.205.034-.205.034-.205.032-.207.031-.205.03-.208.028-.207.026-.207.027-.208.024-.21.023-.208.024-.21.02-.21.02-.209.017-.21.016-.213.016-.212.015-.21.012-.212.011-.212.011-.214.009-.213.007-.214.006-.214.005-.213.004-.216.001-.214v-.432l-.001-.214-.004-.216-.005-.213-.006-.214-.007-.214-.009-.213-.01-.214-.012-.212-.012-.212-.015-.21-.016-.212-.016-.213-.018-.21-.02-.209-.02-.21-.023-.209-.023-.21-.024-.209-.027-.208-.026-.207-.027-.207-.031-.208-.03-.205-.033-.207-.034-.205-.034-.205-.036-.205-.038-.205-.038-.203-.04-.205-.04-.203-.042-.202-.043-.203-.045-.201-.047-.202-.047-.201-.048-.2-.049-.2-.05-.199-.052-.198-.054-.197-.054-.2-.056-.196-.056-.198-.057-.196-.06-.196-.06-.196-.062-.194-.063-.194-.063-.194-.064-.193-.067-.194-.066-.19-.069-.193-.07-.192-.07-.19-.07-.19-.074-.19-.074-.19-.075-.186-.076-.189-.077-.187-.079-.187-.08-.185-.08-.185-.081-.185-.083-.186-.084-.183-.085-.183-.086-.184-.086-.181-.088-.182-.09-.18-.09-.18-.092-.18-.092-.18-.093-.177-.095-.178-.096-.177-.097-.176-.097-.176-.099-.174-.099-.177-.1-.172-.103-.173-.102-.172-.103-.173-.106-.17-.106-.172-.106-.169-.108-.169-.108-.169-.11-.167-.111-.167-.112-.167-.113-.166-.113-.165-.113-.164-.117-.164-.117-.161-.117-.162-.119-.162-.118-.16-.12-.16-.123-.16-.122-.158-.123-.157-.124-.156-.124-.157-.126-.156-.127-.155-.128-.153-.128-.152-.13-.153-.13-.151-.132-.151-.13-.15-.134-.149-.135-.147-.135-.148-.135-.147-.136-.146-.139-.145-.136-.144-.14-.142-.14-.144-.141-.14-.142-.142-.142-.14-.144-.14-.144-.138-.144-.136-.147-.137-.146-.137-.147-.134-.148-.134-.149-.133-.15-.133-.15-.13-.153-.13-.151-.13-.153-.13-.155-.127-.154-.126-.155-.126-.156-.126-.157-.124-.158-.122-.158-.122-.158-.12-.16-.121-.16-.12-.162-.12-.162-.116-.164-.117-.163-.115-.164-.115-.165-.113-.166-.112-.165-.113-.167-.11-.168-.11-.169-.11-.169-.105-.17-.108-.17-.106-.172-.105-.171-.104-.173-.102-.172-.101-.175-.1-.174-.101-.174-.1-.177-.096-.176-.098-.178-.095-.176-.093-.18-.094-.178-.093-.18-.09-.18-.092-.181-.088-.182-.088-.181-.088-.182-.085-.183-.086-.184-.083-.185-.083-.185-.082-.185-.081-.187-.08-.186-.077-.188-.077-.187-.077-.19-.074-.188-.074-.189-.073-.19-.072-.191-.07-.19-.07-.193-.069-.192-.066-.193-.067-.194-.065-.192-.063-.195-.063-.196-.06-.194-.06-.196-.06-.198-.057-.196-.057-.197-.056-.198-.054-.198-.052-.2-.052-.2-.05-.199-.051-.2-.049-.2-.046-.202-.045-.201-.045-.202-.043-.203-.044-.203-.04-.203-.04-.204-.038-.205-.038-.205-.036-.204-.034-.207-.034-.205-.03-.207-.033-.207-.029-.207-.029-.208-.027-.209-.025-.208-.025-.209-.023-.208-.022-.21-.022-.211-.018-.21-.018-.213-.018-.21-.014-.212-.014-.213-.013-.212-.013-.212-.009-.214-.008-.214-.008-.214-.007-.214-.003-.214-.004-.216-.002-3.214-.01V91.341H331.342z" fill="#fff"/><path d="M639.997 711.655H328.34V399.999h119.564c0 20.014 16.25 36.264 36.264 36.264 20.016 0 36.266-16.25 36.266-36.264h119.562v119.564c20.016 0 36.265 16.25 36.265 36.264 0 20.014-16.249 36.264-36.265 36.264v119.564z" fill="#8600fd"/><path d="M447.905 400.233l.004.235.003.232.006.234.005.234.009.232.009.232.01.231.013.232.015.23.016.233.016.23.018.23.02.228.021.23.022.229.025.228.025.228.027.227.027.227.03.226.031.227.033.224.034.227.034.225.036.223.04.224.037.223.042.223.041.223.043.222.045.22.047.222.047.221.048.22.05.219.05.22.055.219.054.217.054.218.057.217.058.216.06.216.06.216.061.214.063.213.065.214.065.214.068.213.068.212.069.21.07.212.074.21.072.21.075.21.076.208.077.207.077.209.08.206.08.205.081.205.085.205.084.205.085.203.086.204.088.203.09.201.09.202.092.2.091.199.094.2.095.199.097.198.097.196.097.196.101.196.1.196.103.194.103.194.104.193.104.192.108.192.106.19.11.192.11.188.11.19.113.188.113.187.113.185.115.187.117.185.117.184.119.183.12.184.12.181.121.182.124.18.124.18.124.18.126.177.128.178.128.176.13.177.129.174.13.174.132.173.133.173.135.172.135.171.136.17.137.168.139.17.138.166.14.168.142.165.142.165.142.164.144.164.146.162.146.161.147.16.147.16.15.159.149.158.151.156.151.157.153.156.153.153.154.155.155.15.156.154.157.15.158.15.158.147.16.15.162.145.16.146.164.145.163.144.164.144.165.142.166.14.165.14.17.14.167.138.169.138.17.135.171.135.171.135.173.133.174.133.174.13.175.13.176.13.176.128.177.125.18.126.177.126.18.124.18.123.182.122.181.12.184.119.183.119.185.116.185.117.186.115.187.116.187.113.187.111.188.112.191.11.19.107.191.108.19.106.193.106.194.105.193.102.196.103.194.1.196.1.196.098.198.097.198.096.197.095.2.093.2.094.2.092.2.09.204.088.201.088.203.086.203.086.205.085.205.083.205.08.207.081.207.08.207.079.208.077.209.075.208.074.21.074.211.072.21.07.213.07.212.068.212.067.212.065.214.064.214.063.216.063.214.06.218.059.215.057.218.058.216.056.219.054.218.052.219.052.22.048.219.049.22.049.222.045.221.044.223.044.221.043.223.04.223.039.225.038.225.036.225.036.224.034.225.032.227.03.226.03.227.028.228.027.228.025.229.024.228.023.229.02.23.02.23.018.23.018.23.014.23.014.232.013.232.01.232.012.234.007.232.007.234.005.233.004.234.002h.469l.234-.002.234-.004.234-.005.232-.007.233-.007.232-.011.232-.011.23-.013.232-.014.23-.014.23-.018.23-.018.231-.02.228-.02.229-.023.228-.024.228-.025.227-.027.228-.029.227-.028.225-.03.226-.033.225-.034.225-.036.225-.036.222-.038.225-.04.223-.04.221-.042.223-.044.221-.044.222-.045.219-.049.221-.049.22-.048.219-.052.217-.052.218-.054.218-.056.217-.058.216-.057.216-.06.216-.059.215-.063.214-.063.214-.064.212-.065.213-.067.212-.068.212-.07.21-.07.21-.072.211-.074.209-.074.208-.075.209-.077.207-.08.206-.079.207-.08.205-.081.205-.083.203-.085.205-.086.203-.086.202-.088.201-.089.202-.09.201-.091.2-.094.2-.093.197-.095.198-.096.198-.097.196-.099.196-.099.194-.1.194-.103.194-.102.194-.105.19-.106.193-.106.19-.108.191-.108.19-.11.188-.11.189-.112.187-.113.187-.116.185-.115.185-.117.185-.116.184-.12.182-.118.183-.12.18-.122.181-.123.18-.124.178-.126.178-.126.178-.125.176-.128.177-.13.174-.13.174-.13.173-.133.173-.133.172-.135.171-.135.17-.135.17-.138.167-.139.167-.138.168-.14.165-.14.165-.143.164-.144.164-.144.162-.145.161-.146.16-.145.16-.15.16-.147.157-.15.158-.15.157-.153.154-.151.155-.155.153-.153.152-.156.152-.157.15-.156.15-.158.15-.159.147-.16.147-.16.146-.161.143-.162.146-.164.142-.164.142-.165.142-.165.139-.168.14-.167.138-.169.137-.169.137-.169.135-.17.133-.173.133-.173.133-.173.131-.174.13-.174.129-.177.128-.176.127-.178.126-.178.124-.18.124-.18.123-.18.122-.18.12-.182.12-.184.12-.183.116-.184.117-.185.115-.187.114-.185.113-.187.111-.189.112-.189.11-.188.107-.191.108-.19.106-.193.106-.192.105-.193.102-.194.103-.194.1-.196.1-.196.098-.196.097-.196.097-.198.094-.2.095-.2.092-.199.092-.2.09-.2.09-.202.087-.203.087-.204.084-.203.085-.205.082-.205.083-.205.081-.205.08-.206.077-.209.077-.207.075-.208.076-.21.072-.21.072-.21.072-.212.068-.21.068-.212.067-.213.066-.214.065-.214.063-.213.061-.214.061-.216.06-.216.057-.216.056-.217.056-.218.054-.217.052-.22.052-.22.05-.219.049-.219.047-.221.046-.221.043-.221.045-.222.042-.223.04-.223.039-.223.038-.224.037-.223.035-.225.034-.227.032-.224.03-.227.031-.226.027-.227.027-.227.025-.228.026-.228.021-.229.022-.23.02-.228.017-.23.017-.23.016-.232.014-.23.011-.233.013-.231.009-.232.007-.232.007-.234.005-.234.004-.232.002-.235.002-.234h119.562v119.564h.235l.234.002.234.003.234.006.231.007.234.009.232.009.232.01.23.013.232.015.23.014.23.018.23.018.23.02.23.02.228.023.228.023.228.025.227.027.228.03.227.028.225.032.226.033.225.032.225.036.224.036.223.038.225.04.223.04.221.042.223.043.221.045.222.045.219.049.221.048.22.05.219.05.217.053.218.054.218.056.217.057.216.058.216.06.215.058.216.063.214.063.214.065.212.065.212.066.213.069.212.07.21.07.21.072.21.073.21.074.208.076.209.077.206.08.207.078.207.081.205.081.205.083.203.084.205.087.203.086.202.088.201.088.201.092.202.09.2.093.199.094.198.095.198.095.197.097.196.1.196.1.195.1.194.101.194.105.194.104.193.104.19.106.19.108.191.108.19.112.188.11.189.11.187.114.187.115.185.115.185.117.185.117.184.119.181.118.184.123.18.12.181.122.18.124.178.126.178.126.178.126.176.13.176.127.175.131.174.132.175.13.17.134.173.135.171.135.17.136.17.137.167.138.167.139.167.14.166.14.165.142.164.144.164.144.161.146.162.145.162.146.158.15.16.147.159.15.156.15.156.153.155.15.155.156.153.154.152.155.151.156.151.157.15.158.149.158.147.16.148.16.145.162.146.162.144.164.142.163.142.166.142.165.14.167.139.167.138.17.137.168.137.171.134.171.133.17.134.174.133.172.13.175.13.176.13.174.127.178.128.176.126.178.124.18.124.18.122.18.123.181.12.182.12.183.12.184.116.183.117.186.115.187.113.185.114.189.111.187.112.188.11.19.107.19.108.19.106.193.106.192.105.192.102.195.103.194.1.196.1.196.098.196.097.198.097.197.094.198.095.2.092.2.091.199.09.201.09.202.088.203.087.203.084.203.085.205.082.205.083.205.081.207.08.207.076.207.078.208.075.207.076.21.072.209.072.21.072.212.068.21.068.213.067.212.066.214.065.214.063.214.061.214.061.216.06.216.057.217.056.216.056.218.054.217.052.22.052.219.05.22.049.219.046.22.047.222.043.221.045.221.042.223.04.223.039.223.038.225.037.223.034.225.035.226.032.225.03.226.031.227.027.227.027.228.025.227.025.228.022.228.022.23.02.229.017.23.017.23.016.232.014.23.01.232.013.232.01.232.007.232.007.234.005.233.004.234.002.234.001.234-.001.233-.002.236-.004.232-.005.234-.007.234-.008.231-.009.232-.012.232-.01.232-.015.23-.016.232-.017.23-.018.23-.02.23-.021.23-.022.228-.025.228-.025.227-.027.228-.027.226-.03.227-.031.227-.032.224-.035.227-.034.225-.037.223-.038.224-.04.223-.04.223-.04.223-.046.221-.043.222-.047.22-.046.222-.049.22-.05.219-.052.219-.052.22-.054.217-.056.218-.056.215-.057.218-.06.216-.06.215-.062.214-.063.214-.065.214-.066.214-.067.212-.068.213-.068.21-.072.212-.072.21-.072.21-.076.21-.075.206-.078.209-.077.207-.079.206-.08.207-.084.205-.082.205-.085.205-.084.203-.087.204-.088.203-.09.201-.09.201-.091.2-.092.2-.095.2-.094.197-.097.198-.097.198-.099.196-.099.196-.1.196-.103.194-.102.194-.105.192-.106.193-.106.192-.108.19-.108.191-.11.19-.11.188-.112.187-.114.189-.113.185-.115.187-.117.185-.117.184-.118.183-.12.183-.121.182-.123.182-.122.18-.124.18-.124.179-.126.178-.128.176-.127.178-.13.175-.13.176-.13.174-.133.173-.134.173-.133.17-.134.171-.137.171-.137.169-.138.169-.139.167-.14.167-.142.166-.142.165-.142.164-.144.164-.146.161-.145.162-.148.16-.147.16-.15.159-.149.158-.15.156-.152.157-.152.154-.153.155-.155.155-.155.15-.156.153-.156.15-.159.15-.16.148-.158.15-.162.145-.162.146-.161.145-.164.144-.164.144-.165.142-.166.14-.167.14-.167.139-.167.138-.17.137-.17.137-.17.135-.173.135-.171.133-.175.13-.174.132-.175.131-.176.128-.176.13-.178.125-.178.126-.178.126-.18.124-.181.122-.18.123-.184.12-.181.119-.184.118-.185.117-.185.117-.185.115-.187.115-.187.114-.189.111-.189.11-.189.111-.19.108-.19.108-.191.106-.193.106-.194.103-.194.104-.194.1-.195.101-.196.101-.196.099-.197.097-.198.095-.198.096-.2.093-.2.094-.2.09-.202.091-.201.088-.202.089-.203.086-.205.086-.203.085-.205.082-.205.081-.207.081-.207.08-.206.078-.209.078-.208.075-.21.074-.21.074-.21.072-.21.07-.212.07-.213.068-.212.067-.212.064-.214.065-.214.063-.216.063-.215.06-.216.059-.216.057-.217.058-.218.056-.218.054-.217.052-.22.05-.219.05-.221.049-.22.048-.22.045-.222.045-.223.044-.22.04-.224.042-.225.04-.223.038-.224.036-.225.035-.225.033-.226.032-.225.033-.227.028-.228.03-.227.026-.228.025-.228.024-.229.023-.228.02-.23.02-.23.018-.23.018-.23.014-.233.014-.23.013-.232.01-.232.011-.234.008-.231.007-.234.005-.234.004-.234.002h-.235v119.564H328.34V399.999h119.564v.234zm-116.563 2.765v305.657h305.656V589.1l3.214-.01.216-.002.214-.004.214-.003.214-.008.214-.007.214-.009.212-.009.212-.012.213-.013.212-.014.21-.015.212-.016.21-.02.211-.018.209-.021.21-.022.209-.023.208-.025.209-.026.208-.026.207-.03.207-.028.207-.032.205-.03.207-.035.204-.034.205-.036.205-.038.204-.038.203-.041.203-.04.203-.043.202-.043.201-.045.201-.045.202-.047.2-.048.199-.05.2-.05.2-.053.197-.052.198-.054.197-.056.196-.057.198-.058.196-.06.194-.059.195-.06.196-.064.194-.063.192-.064.193-.067.192-.066.192-.069.191-.07.19-.07.191-.072.189-.074.189-.073.189-.074.187-.077.188-.078.187-.077.186-.08.185-.08.185-.083.183-.082.186-.083.183-.085.182-.086.181-.088.182-.088.181-.088.18-.092.18-.09.178-.093.18-.094.176-.093.178-.096.176-.097.177-.097.174-.099.174-.1.175-.101.172-.1.173-.103.17-.105.173-.104.171-.106.17-.108.168-.106.17-.11.167-.11.167-.11.165-.11.166-.114.165-.113.164-.115.163-.115.164-.117.162-.117.162-.119.16-.12.16-.12.158-.121.158-.122.158-.123.157-.124.156-.126.155-.125.154-.126.155-.128.153-.13.151-.129.153-.13.15-.13.15-.134.15-.133.147-.133.147-.135.146-.136.147-.137.144-.137.144-.138.144-.139.142-.14.142-.14.14-.142.14-.144.14-.142.137-.144.139-.145.136-.146.135-.148.135-.147.135-.147.133-.15.131-.149.132-.151.13-.151.13-.153.128-.153.128-.153.127-.154.126-.157.124-.156.124-.156.123-.157.122-.158.122-.16.12-.16.12-.16.118-.162.117-.162.117-.162.117-.163.113-.164.113-.165.113-.166.112-.167.111-.167.11-.167.108-.17.108-.169.106-.169.106-.17.106-.171.103-.173.102-.172.103-.173.1-.173.1-.176.098-.174.097-.176.097-.177.096-.176.095-.178.093-.178.092-.18.092-.18.09-.18.09-.18.088-.18.086-.182.086-.184.085-.183.084-.184.083-.185.08-.185.082-.185.079-.185.08-.187.076-.187.076-.19.075-.186.074-.189.074-.19.07-.191.07-.189.07-.192.069-.193.066-.19.067-.195.064-.192.063-.194.063-.194.061-.195.062-.196.059-.196.057-.196.056-.196.056-.197.054-.198.054-.2.052-.197.05-.2.049-.2.048-.2.047-.2.047-.202.045-.201.043-.204.041-.201.042-.203.04-.205.037-.203.038-.205.036-.205.034-.205.034-.205.032-.207.031-.205.03-.209.028-.206.026-.207.027-.209.024-.208.023-.209.024-.21.02-.21.02-.21.017-.21.016-.212.016-.212.015-.21.012-.212.011-.213.011-.214.009-.212.007-.214.006-.214.005-.214.004-.216.001-.213v-.432l-.001-.214-.004-.216-.005-.214-.006-.214-.007-.214-.009-.212-.01-.214-.012-.212-.012-.212-.015-.21-.016-.213-.016-.212-.018-.21-.02-.209-.02-.21-.023-.209-.023-.21-.024-.209-.027-.208-.026-.207-.027-.207-.031-.208-.03-.205-.033-.207-.034-.205-.034-.205-.036-.205-.038-.205-.038-.203-.04-.205-.04-.204-.042-.2-.043-.204-.045-.201-.047-.202-.047-.201-.048-.2-.049-.2-.05-.199-.052-.198-.054-.198-.054-.2-.056-.197-.056-.196-.057-.196-.06-.196-.06-.196-.062-.194-.063-.194-.063-.195-.064-.192-.067-.194-.066-.193-.069-.19-.07-.193-.07-.188-.07-.19-.074-.192-.074-.188-.075-.187-.076-.19-.077-.186-.079-.187-.08-.185-.08-.186-.081-.185-.083-.185-.084-.183-.085-.184-.086-.183-.086-.182-.088-.181-.09-.18-.09-.18-.092-.18-.092-.18-.093-.178-.095-.178-.096-.176-.097-.176-.097-.176-.099-.175-.099-.176-.1-.172-.103-.173-.102-.173-.103-.172-.106-.171-.106-.171-.106-.169-.108-.169-.108-.169-.11-.167-.111-.167-.112-.168-.113-.165-.113-.166-.113-.163-.117-.164-.117-.162-.117-.161-.119-.162-.118-.16-.12-.16-.123-.16-.122-.159-.123-.156-.124-.158-.124-.155-.126-.156-.127-.155-.128-.153-.128-.153-.13-.152-.13-.152-.132-.15-.13-.15-.134-.15-.135-.147-.135-.147-.135-.147-.136-.146-.139-.146-.138-.144-.139-.142-.14-.143-.14-.14-.142-.143-.142-.14-.144-.138-.144-.139-.144-.137-.147-.136-.146-.137-.147-.135-.148-.133-.149-.133-.15-.133-.152-.131-.151-.13-.151-.13-.153-.129-.155-.127-.154-.126-.155-.126-.156-.126-.157-.124-.158-.122-.158-.122-.158-.12-.16-.121-.16-.12-.162-.12-.162-.116-.164-.117-.163-.115-.164-.115-.165-.114-.166-.111-.165-.113-.167-.11-.168-.11-.169-.11-.169-.106-.17-.107-.17-.107-.172-.104-.171-.104-.173-.103-.172-.1-.175-.101-.174-.1-.174-.1-.177-.097-.176-.097-.178-.095-.176-.094-.18-.093-.178-.094-.18-.09-.18-.091-.181-.088-.182-.088-.181-.089-.182-.086-.183-.084-.184-.083-.185-.083-.185-.082-.185-.081-.186-.08-.187-.077-.188-.077-.187-.077-.19-.074-.188-.074-.189-.074-.19-.072-.191-.07-.19-.07-.193-.068-.192-.067-.193-.066-.192-.065-.194-.063-.196-.063-.195-.06-.194-.06-.196-.06-.198-.057-.196-.058-.197-.055-.198-.054-.198-.052-.2-.053-.2-.05-.199-.05-.2-.049-.2-.047-.202-.045-.201-.045-.202-.043-.203-.043-.203-.04-.203-.04-.204-.039-.205-.037-.205-.036-.204-.034-.207-.035-.205-.03-.207-.032-.207-.03-.207-.028-.208-.027-.209-.025-.208-.025-.209-.024-.21-.021-.209-.022-.21-.018-.21-.018-.211-.018-.212-.014-.212-.015-.213-.012-.212-.013-.212-.009-.214-.009-.214-.007-.214-.007-.214-.004-.214-.003-.216-.002-3.214-.01V402.997H523.32l-.001.018-.018.248-.022.248-.023.248-.025.249-.026.246-.027.246-.028.247-.03.246-.033.245-.034.244-.035.245-.037.244-.038.243-.04.243-.041.242-.041.243-.045.241-.045.241-.047.24-.049.24-.05.24-.05.238-.052.24-.056.237-.054.237-.058.238-.059.235-.06.236-.06.235-.063.234-.065.234-.065.233-.066.232-.069.232-.07.232-.072.232-.072.23-.073.229-.076.23-.075.228-.08.229-.079.226-.08.227-.082.226-.084.225-.085.225-.086.223-.086.225-.088.22-.092.224-.09.22-.093.222-.094.22-.095.219-.097.217-.097.22-.1.215-.1.218-.1.216-.103.214-.104.214-.107.214-.106.212-.107.212-.11.212-.11.21-.111.211-.114.209-.113.208-.117.207-.115.207-.119.207-.118.204-.12.204-.121.205-.122.201-.124.203-.125.202-.125.2-.128.199-.128.198-.13.2-.13.195-.132.196-.133.196-.135.194-.134.195-.137.192-.137.192-.138.19-.14.192-.14.188-.143.19-.144.186-.144.187-.145.187-.146.184-.147.185-.148.183-.149.182-.151.181-.151.18-.153.18-.154.178-.155.178-.157.176-.156.176-.158.175-.158.174-.16.173-.162.17-.162.172-.162.17-.164.17-.165.167-.165.167-.168.165-.169.166-.169.163-.169.164-.17.162-.173.162-.173.16-.174.158-.175.158-.174.156-.178.157-.176.155-.18.152-.18.153-.18.153-.181.15-.182.149-.183.149-.184.147-.185.146-.185.146-.187.143-.189.144-.187.14-.19.143-.19.138-.192.138-.192.139-.192.137-.193.134-.196.133-.194.133-.198.134-.196.129-.198.13-.2.129-.199.126-.2.126-.2.126-.202.122-.203.124-.204.12-.205.12-.205.12-.206.116-.207.117-.207.115-.208.114-.209.113-.21.111-.21.112-.211.108-.212.108-.214.108-.212.104-.216.104-.214.103-.216.102-.216.1-.217.1-.218.097-.22.097-.219.095-.219.094-.221.091-.221.092-.221.09-.223.088-.223.088-.225.086-.225.085-.225.083-.226.082-.227.081-.226.08-.229.077-.228.077-.228.076-.23.073-.23.072-.23.072-.233.068-.232.069-.234.068-.232.065-.233.065-.236.063-.235.06-.236.06-.235.058-.238.057-.237.056-.238.054-.237.054-.239.05-.24.05-.24.049-.24.047-.24.045-.243.043-.24.043-.244.041-.242.04-.245.038-.243.036-.244.036-.245.032-.246.032-.245.03-.246.03-.248.028-.246.026-.249.025-.246.021-.25.022-.248.02-.25.018-.25.016-.25.016-.25.013-.25.012-.251.011-.252.009-.252.007-.252.006-.253.003-.254.002-.253.002-.254-.002-.251-.002-.254-.003-.252-.006-.251-.007-.252-.009-.252-.01-.25-.013-.252-.013-.25-.016-.25-.016-.248-.018-.25-.02-.248-.022-.248-.021-.246-.025-.248-.026-.247-.028-.246-.03-.244-.03-.247-.032-.244-.032-.245-.036-.244-.036-.243-.038-.243-.04-.243-.041-.24-.043-.243-.043-.241-.045-.24-.047-.24-.049-.24-.05-.239-.05-.239-.054-.237-.054-.237-.056-.236-.057-.237-.058-.236-.06-.234-.06-.235-.063-.234-.065-.234-.065-.232-.068-.232-.069-.232-.068-.23-.072-.23-.072-.23-.073-.23-.076-.229-.077-.226-.078-.227-.079-.226-.08-.227-.083-.226-.083-.223-.085-.225-.086-.223-.088-.223-.088-.221-.09-.223-.092-.22-.091-.22-.094-.22-.095-.218-.097-.217-.097-.218-.1-.216-.1-.215-.102-.216-.103-.214-.104-.214-.104-.212-.108-.212-.108-.21-.108-.211-.112-.21-.111-.21-.113-.208-.114-.208-.115-.207-.117-.205-.117-.205-.118-.205-.12-.203-.121-.203-.124-.202-.122-.201-.126-.201-.126-.2-.126-.198-.13-.198-.129-.197-.13-.196-.133-.195-.133-.196-.133-.194-.134-.192-.137-.19-.139-.193-.138-.189-.138-.19-.143-.19-.142-.186-.142-.187-.143-.186-.146-.185-.146-.183-.147-.184-.15-.183-.149-.18-.15-.181-.152-.178-.153-.18-.152-.178-.155-.176-.157-.175-.156-.176-.158-.173-.158-.172-.16-.173-.162-.17-.162-.172-.164-.167-.163-.169-.166-.167-.165-.165-.167-.166-.168-.164-.169-.163-.17-.162-.171-.16-.171-.16-.173-.16-.174-.157-.175-.158-.176-.154-.176-.155-.178-.155-.178-.152-.18-.152-.18-.15-.181-.15-.182-.147-.183-.148-.185-.147-.184-.144-.187-.146-.187-.142-.187-.142-.189-.14-.188-.14-.191-.139-.19-.136-.193-.137-.192-.135-.195-.135-.194-.133-.196-.131-.196-.131-.196-.13-.198-.127-.2-.128-.199-.126-.2-.124-.2-.124-.204-.122-.201-.123-.205-.118-.204-.119-.204-.119-.207-.117-.207-.115-.207-.113-.208-.113-.209-.112-.21-.11-.21-.109-.213-.108-.212-.106-.212-.106-.214-.104-.214-.103-.214-.1-.216-.101-.218-.1-.215-.098-.22-.095-.217-.096-.22-.093-.219-.094-.221-.091-.221-.09-.223-.088-.221-.088-.225-.085-.223-.086-.225-.083-.225-.08-.226-.082-.227-.079-.226-.079-.229-.076-.228-.075-.228-.074-.23-.074-.23-.07-.233-.07-.232-.068-.232-.067-.232-.066-.233-.063-.234-.063-.234-.061-.235-.061-.236-.058-.235-.057-.238-.056-.237-.054-.237-.052-.24-.052-.237-.049-.24-.048-.24-.047-.241-.047-.241-.043-.24-.043-.244-.042-.242-.037-.243-.04-.243-.036-.244-.034-.245-.034-.244-.033-.245-.03-.246-.029-.247-.027-.246-.027-.246-.023-.249-.024-.248-.021-.248-.02-.248v-.018H331.342z" fill="#fff"/><path d="M951.652 399.999H832.09c0 20.014-16.25 36.264-36.265 36.264s-36.264-16.25-36.264-36.264H639.997V280.435c20.016 0 36.265-16.25 36.265-36.264 0-20.015-16.249-36.264-36.265-36.264V88.343h311.655V400z" fill="#264de4"/><path d="M951.652 399.999H832.09l-.002.234-.001.235-.004.232-.005.234-.008.234-.007.232-.009.232-.012.231-.013.232-.012.23-.017.233-.016.23-.018.23-.02.228-.021.23-.024.229-.023.228-.025.228-.027.227-.027.227-.03.226-.031.227-.033.224-.034.227-.034.225-.038.223-.037.224-.04.223-.04.223-.04.223-.046.222-.043.22-.047.222-.046.221-.049.22-.05.219-.052.22-.053.219-.054.217-.055.218-.056.217-.058.216-.059.216-.061.216-.061.214-.063.213-.065.214-.066.214-.067.213-.068.212-.069.21-.071.212-.072.21-.072.21-.076.21-.075.208-.078.207-.077.209-.08.206-.08.205-.083.205-.082.205-.085.205-.084.203-.087.204-.088.203-.09.201-.09.202-.091.2-.092.199-.095.2-.094.199-.097.198-.097.196-.099.196-.099.196-.1.196-.103.194-.103.194-.104.193-.106.192-.106.192-.108.19-.108.192-.11.188-.111.19-.111.188-.114.187-.113.185-.115.187-.117.185-.117.184-.119.183-.12.184-.12.181-.123.182-.122.18-.124.18-.124.18-.126.177-.128.178-.127.176-.13.177-.13.174-.13.174-.134.173-.133.173-.133.172-.135.171-.136.17-.137.168-.138.17-.14.166-.139.168-.142.165-.142.165-.142.164-.146.164-.144.162-.145.161-.148.16-.147.16-.15.159-.149.158-.15.156-.152.157-.153.156-.152.153-.155.155-.155.15-.156.154-.158.15-.157.15-.16.147-.16.15-.16.145-.162.146-.162.145-.163.144-.164.144-.165.142-.166.14-.167.14-.167.14-.167.138-.171.138-.17.135-.17.135-.173.135-.172.133-.173.133-.174.13-.175.13-.176.13-.176.128-.178.125-.178.126-.178.126-.18.124-.182.123-.18.122-.183.12-.181.119-.184.119-.185.116-.185.117-.185.115-.187.116-.187.113-.19.111-.188.112-.189.11-.19.107-.191.108-.192.106-.191.106-.194.105-.194.102-.195.103-.194.1-.196.1-.196.098-.198.097-.197.096-.198.095-.2.093-.2.094-.2.092-.202.09-.201.088-.202.088-.203.086-.205.086-.203.085-.205.083-.205.08-.207.081-.207.08-.206.079-.209.077-.209.075-.208.074-.21.074-.21.072-.211.07-.212.07-.213.068-.212.067-.212.065-.214.064-.214.063-.216.063-.216.06-.215.059-.216.057-.218.058-.217.056-.218.054-.217.052-.22.052-.22.048-.22.049-.22.049-.22.045-.222.044-.223.044-.221.043-.223.04-.225.039-.223.038-.225.036-.224.036-.225.034-.227.032-.224.03-.227.03-.228.028-.227.027-.228.025-.229.024-.228.023-.228.02-.23.02-.23.018-.23.018-.23.014-.233.014-.23.013-.232.01-.232.012-.234.007-.232.007-.233.005-.234.004-.234.002h-.469l-.234-.002-.234-.004-.233-.005-.232-.007-.234-.007-.232-.011-.232-.011-.232-.013-.23-.014-.23-.014-.23-.018-.23-.018-.23-.02-.23-.02-.227-.023-.229-.024-.228-.025-.229-.027-.226-.029-.227-.028-.226-.03-.225-.033-.225-.034-.224-.036-.225-.036-.225-.038-.223-.04-.223-.04-.221-.042-.223-.044-.221-.044-.221-.045-.222-.049-.219-.049-.22-.048-.219-.052-.217-.052-.22-.054-.217-.056-.216-.058-.216-.057-.217-.06-.214-.059-.216-.063-.214-.063-.214-.064-.212-.065-.214-.067-.21-.068-.213-.07-.21-.07-.21-.072-.21-.074-.21-.074-.208-.075-.209-.077-.206-.08-.207-.079-.207-.08-.205-.081-.205-.083-.205-.085-.203-.086-.203-.086-.202-.088-.203-.089-.2-.09-.2-.091-.2-.094-.2-.093-.198-.095-.197-.096-.198-.097-.196-.099-.196-.099-.196-.1-.194-.103-.193-.102-.194-.105-.192-.106-.191-.106-.19-.108-.191-.108-.19-.11-.19-.11-.187-.112-.187-.113-.187-.116-.185-.115-.185-.117-.185-.116-.184-.12-.183-.118-.182-.12-.181-.122-.18-.123-.18-.124-.178-.126-.18-.126-.176-.125-.176-.128-.176-.13-.175-.13-.174-.13-.175-.133-.172-.133-.171-.135-.17-.135-.172-.135-.169-.138-.167-.139-.169-.138-.165-.14-.168-.14-.163-.143-.166-.144-.161-.144-.164-.145-.16-.146-.162-.145-.16-.15-.158-.147-.158-.15-.157-.15-.156-.153-.155-.151-.155-.155-.152-.153-.153-.156-.151-.157-.151-.156-.15-.158-.149-.159-.147-.16-.148-.16-.145-.161-.146-.162-.144-.164-.142-.164-.142-.165-.142-.165-.14-.168-.139-.167-.138-.169-.137-.169-.136-.169-.135-.17-.135-.173-.133-.173-.131-.173-.132-.174-.13-.174-.129-.177-.127-.176-.128-.178-.126-.178-.124-.18-.124-.18-.124-.18-.12-.18-.121-.182-.12-.184-.12-.183-.116-.184-.117-.185-.115-.187-.113-.185-.114-.187-.113-.189-.11-.189-.11-.188-.109-.191-.106-.19-.108-.193-.104-.192-.104-.193-.103-.194-.102-.194-.101-.196-.1-.196-.098-.196-.097-.196-.097-.198-.095-.2-.094-.2-.092-.199-.091-.2-.09-.2-.09-.202-.088-.203-.087-.204-.084-.203-.085-.205-.084-.205-.081-.205-.08-.205-.08-.206-.08-.209-.075-.207-.075-.208-.076-.21-.072-.21-.073-.21-.07-.212-.069-.21-.068-.212-.068-.213-.065-.214-.065-.214-.063-.213-.06-.214-.062-.216-.06-.216-.057-.216-.057-.217-.054-.218-.054-.217-.054-.22-.05-.22-.051-.219-.049-.219-.046-.221-.047-.221-.045-.221-.043-.222-.042-.223-.04-.223-.04-.223-.038-.224-.036-.223-.034-.225-.034-.227-.033-.224-.03-.227-.031-.226-.027-.227-.027-.227-.025-.228-.025-.228-.022-.229-.021-.23-.02-.228-.018-.23-.016-.23-.017-.232-.014-.23-.013-.233-.01-.231-.01-.232-.008-.232-.006-.234-.005-.234-.004-.232-.003-.235v-.234H639.997V280.435h.235l.234-.002.234-.004.234-.005.231-.007.234-.007.232-.011.232-.01.23-.013.232-.015.23-.014.23-.018.23-.018.23-.02.23-.02.228-.023.228-.023.228-.026.227-.027.228-.028.227-.03.225-.032.226-.032.225-.032.225-.036.224-.036.223-.038.225-.04.223-.04.221-.042.223-.043.221-.045.222-.045.219-.049.221-.048.22-.05.219-.051.217-.052.218-.054.218-.056.217-.057.216-.058.216-.06.215-.059.216-.063.214-.063.214-.064.212-.065.212-.067.213-.068.212-.07.21-.07.21-.072.21-.074.21-.073.208-.076.209-.077.206-.08.207-.079.207-.08.205-.081.205-.083.203-.085.205-.086.203-.086.202-.088.201-.088.201-.092.202-.09.2-.094.199-.093.198-.095.198-.096.197-.097.196-.099.196-.1.195-.101.194-.1.194-.105.194-.102.193-.107.19-.106.19-.108.191-.107.19-.112.188-.11.189-.111.187-.113.187-.115.185-.115.185-.117.185-.117.184-.119.181-.119.184-.12.18-.122.181-.123.18-.124.178-.126.178-.125.178-.126.176-.13.176-.127.175-.132.174-.13.175-.132.17-.133.173-.135.171-.135.17-.137.17-.136.167-.139.167-.138.167-.14.166-.14.165-.143.164-.144.164-.143.161-.146.162-.146.162-.145.158-.15.16-.147.159-.151.156-.15.156-.152.155-.151.155-.155.153-.154.152-.155.151-.157.151-.156.15-.158.149-.158.147-.16.148-.16.145-.162.146-.162.144-.164.142-.163.142-.166.142-.165.14-.167.139-.168.138-.169.137-.169.137-.17.134-.171.133-.171.134-.173.133-.172.13-.175.13-.176.13-.174.127-.178.128-.177.126-.178.124-.18.124-.18.122-.18.123-.18.12-.182.12-.184.12-.183.116-.184.117-.185.115-.187.113-.185.114-.189.111-.187.112-.189.11-.188.107-.191.108-.19.106-.193.106-.192.105-.193.102-.194.103-.194.1-.196.1-.196.098-.196.097-.196.097-.2.094-.197.095-.2.092-.2.091-.2.09-.2.09-.202.088-.203.087-.203.084-.204.085-.205.082-.205.083-.205.081-.206.08-.207.076-.207.078-.207.075-.208.076-.21.072-.21.072-.21.072-.212.068-.21.068-.212.067-.212.066-.214.065-.214.063-.214.061-.214.061-.216.06-.216.057-.217.056-.216.056-.218.054-.217.052-.22.052-.22.05-.218.049-.22.046-.221.047-.221.043-.221.045-.221.042-.223.04-.223.039-.223.038-.225.037-.223.034-.225.035-.226.032-.225.03-.227.031-.226.027-.227.027-.226.025-.229.025-.228.022-.228.022-.23.02-.229.017-.23.017-.23.016-.232.014-.23.01-.232.013-.232.01-.232.007-.232.007-.234.005-.234.004-.232.002-.235.001-.234-.001-.234-.002-.234-.004-.233-.005-.234-.007-.234-.008-.232-.009-.232-.012-.232-.01-.232-.015-.23-.016-.232-.017-.23-.018-.23-.02-.228-.021-.23-.022-.229-.025-.228-.025-.227-.027-.228-.027-.227-.03-.226-.031-.227-.032-.225-.035-.226-.034-.225-.037-.223-.038-.225-.04-.223-.04-.223-.04-.223-.046-.22-.043-.222-.047-.221-.046-.221-.049-.22-.05-.219-.052-.22-.052-.219-.054-.217-.056-.218-.056-.216-.057-.217-.06-.216-.06-.216-.062-.214-.063-.214-.065-.214-.066-.214-.067-.212-.068-.212-.068-.21-.072-.212-.072-.21-.072-.21-.076-.208-.075-.209-.078-.208-.077-.207-.079-.207-.08-.206-.084-.205-.082-.205-.085-.205-.084-.204-.087-.203-.088-.203-.09-.201-.09-.202-.091-.2-.092-.199-.095-.2-.094-.197-.097-.198-.097-.198-.099-.196-.099-.196-.1-.196-.103-.194-.102-.194-.105-.193-.106-.192-.106-.192-.108-.191-.108-.189-.11-.19-.11-.19-.112-.186-.114-.189-.113-.185-.115-.187-.117-.185-.117-.184-.118-.183-.12-.184-.121-.181-.123-.182-.122-.18-.124-.18-.124-.18-.126-.177-.128-.177-.127-.178-.13-.174-.13-.176-.13-.175-.133-.172-.134-.173-.133-.17-.134-.171-.137-.171-.137-.17-.138-.168-.139-.168-.14-.167-.142-.165-.142-.166-.142-.163-.144-.164-.146-.162-.145-.162-.148-.16-.147-.16-.15-.158-.149-.158-.15-.156-.152-.157-.152-.155-.153-.154-.155-.155-.155-.15-.156-.154-.156-.149-.159-.151-.16-.147-.158-.15-.162-.145-.162-.146-.161-.146-.164-.143-.164-.144-.165-.142-.166-.14-.167-.14-.167-.14-.167-.138-.17-.136-.17-.137-.17-.135-.173-.135-.171-.133-.175-.131-.174-.131-.175-.132-.176-.127-.176-.13-.178-.126-.178-.125-.178-.126-.18-.124-.181-.123-.18-.12-.184-.122-.181-.12-.184-.118-.185-.117-.185-.117-.185-.115-.187-.115-.187-.113-.189-.111-.189-.11-.189-.11-.19-.11-.19-.107-.191-.106-.193-.105-.194-.104-.194-.104-.194-.101-.195-.1-.196-.101-.196-.1-.197-.096-.198-.096-.198-.095-.2-.093-.2-.094-.2-.09-.202-.092-.201-.088-.202-.088-.203-.086-.205-.086-.203-.085-.205-.083-.205-.08-.207-.081-.207-.08-.206-.079-.209-.077-.208-.076-.21-.073-.21-.074-.21-.072-.21-.07-.212-.07-.213-.068-.212-.067-.212-.065-.214-.064-.214-.063-.216-.063-.215-.06-.216-.059-.216-.058-.217-.057-.218-.056-.218-.054-.217-.052-.22-.05-.219-.05-.221-.05-.22-.048-.22-.045-.222-.045-.223-.043-.22-.041-.224-.041-.225-.04-.223-.038-.224-.036-.225-.036-.225-.032-.226-.032-.225-.033-.227-.029-.228-.028-.227-.027-.228-.026-.228-.023-.229-.023-.228-.02-.23-.02-.23-.018-.23-.018-.23-.014-.233-.015-.23-.012-.232-.01-.232-.01-.234-.009-.231-.007-.234-.005-.234-.004-.234-.002h-.235V88.343h311.655V400zM642.998 91.342V205.02l.016.002.248.02.25.022.246.023.248.023.247.025.248.03.246.028.245.03.246.033.245.032.244.036.243.036.245.038.242.04.243.04.241.044.243.043.24.045.24.047.24.048.24.05.239.053.237.052.24.054.237.056.235.057.236.058.236.06.235.062.234.061.235.065.232.067.234.066.232.068.232.07.23.07.23.073.23.075.229.074.228.077.229.077.226.08.227.08.226.083.225.083.225.084.224.087.223.088.223.088.222.09.22.092.222.091.22.096.219.093.219.097.218.097.217.1.216.1.216.102.215.103.214.104.214.106.213.106.212.108.21.108.21.112.21.111.21.113.208.114.209.115.206.117.205.116.205.12.205.12.204.122.203.122.201.122.201.126.2.126.2.128.2.127.197.13.198.131.196.131.194.133.196.133.192.137.193.135.192.138.193.139.188.138.191.142.189.142.187.143.187.143.185.146.185.146.184.147.183.15.182.149.181.15.18.152.18.152.18.153.176.157.178.154.174.157.175.158.174.16.173.16.172.16.171.162.17.164.168.163.17.166.166.165.166.167.165.168.164.169.164.17.161.171.16.171.16.173.159.174.158.174.158.177.155.176.154.178.155.178.153.18.15.18.152.181.15.184.147.181.147.185.146.184.145.187.144.187.144.187.142.189.14.188.14.19.14.192.136.192.136.192.135.195.135.194.133.196.131.196.132.197.13.198.127.198.127.2.126.201.124.2.124.203.123.203.12.203.12.205.12.205.118.205.115.207.115.207.115.208.114.21.111.21.11.21.11.212.107.212.106.212.106.214.105.214.102.216.1.214.102.217.099.218.097.218.097.217.095.22.094.22.093.22.09.221.092.223.088.223.086.223.086.223.085.225.084.226.081.225.081.227.08.226.078.229.076.228.075.23.074.228.072.23.072.233.07.232.068.231.067.232.065.234.064.234.063.234.062.235.059.236.06.235.057.238.055.237.054.237.053.24.05.239.05.239.049.239.047.24.045.242.044.24.042.244.041.242.04.243.038.243.037.244.034.245.035.244.032.245.03.246.03.247.026.246.025.246.026.248.023.249.02.248.02.248.02.25.016.25.014.25.014.25.011.251.01.25.01.254.007.251.005.252.004.252.004.253v.508l-.004.253-.004.252-.005.252-.007.253-.01.252-.01.25-.01.251-.015.25-.014.25-.017.25-.02.25-.02.248-.019.248-.023.249-.026.248-.025.246-.027.246-.028.247-.031.246-.032.245-.035.244-.034.245-.037.244-.038.243-.04.243-.041.242-.042.243-.044.241-.045.241-.047.241-.049.24-.05.238-.05.24-.053.239-.054.237-.055.237-.058.238-.06.235-.058.236-.062.235-.063.234-.064.234-.065.234-.067.232-.068.231-.07.232-.072.232-.072.23-.074.229-.075.23-.076.228-.079.229-.079.226-.08.227-.082.225-.084.226-.085.225-.086.223-.086.223-.088.223-.092.223-.09.221-.093.22-.094.22-.095.22-.097.217-.097.218-.1.218-.1.217-.1.214-.103.216-.105.214-.106.214-.106.212-.108.212-.11.212-.109.21-.111.21-.114.21-.115.208-.115.207-.115.207-.119.205-.118.205-.12.205-.121.205-.123.201-.124.203-.124.2-.126.201-.127.2-.128.198-.13.198-.13.197-.132.196-.133.196-.135.194-.135.195-.136.192-.137.192-.138.191-.14.19-.14.19-.143.188-.144.187-.144.187-.143.187-.148.184-.147.185-.148.181-.15.184-.15.181-.151.18-.153.18-.155.178-.154.178-.155.176-.158.177-.158.174-.159.174-.16.173-.161.17-.162.172-.162.17-.164.17-.165.167-.166.167-.167.165-.169.166-.169.163-.169.164-.17.162-.173.162-.173.158-.174.16-.175.158-.174.157-.178.156-.176.155-.18.153-.18.152-.18.151-.181.151-.182.15-.183.149-.184.147-.185.146-.185.146-.187.143-.187.143-.189.142-.19.142-.19.138-.192.139-.192.138-.193.137-.192.135-.196.133-.194.133-.196.13-.198.132-.198.13-.2.127-.199.128-.2.126-.2.126-.202.122-.203.122-.204.122-.205.12-.205.12-.205.116-.206.117-.209.115-.209.114-.208.113-.21.111-.21.112-.211.108-.212.108-.213.106-.214.106-.214.104-.215.103-.216.102-.216.1-.217.1-.218.097-.22.097-.219.095-.22.094-.22.091-.221.092-.222.09-.223.088-.223.088-.224.087-.225.084-.225.083-.226.083-.227.08-.226.08-.229.077-.228.077-.229.076-.23.073-.23.072-.23.07-.232.07-.232.069-.234.066-.232.067-.233.065-.236.06-.235.064-.236.06-.236.057-.235.057-.237.056-.24.054-.237.052-.24.052-.238.05-.241.05-.24.046-.24.045-.243.043-.241.043-.243.041-.242.04-.245.038-.243.036-.244.036-.245.032-.246.032-.245.031-.246.029-.248.029-.247.025-.248.025-.246.021-.25.022-.248.02-.016.002V397H762.55l.01 3.215.003.214.003.215.006.214.005.214.007.214.01.212.01.214.01.213.013.212.015.21.016.212.016.21.018.211.02.212.02.209.021.21.024.209.025.208.025.207.027.209.029.208.03.207.03.205.033.207.032.205.036.207.036.205.036.203.04.205.04.203.04.203.042.202.043.203.045.201.045.201.049.2.048.201.049.2.05.2.052.197.054.2.054.198.056.198.056.196.057.196.06.196.06.196.062.194.061.194.065.194.064.194.065.193.069.192.068.19.068.191.072.193.07.189.074.19.074.189.075.189.076.187.077.187.08.187.078.187.081.185.081.183.083.186.084.183.085.183.086.184.086.181.089.182.09.18.09.181.091.178.092.18.093.178.096.178.095.176.095.177.1.176.096.176.1.173.102.174.102.175.103.17.102.173.106.17.104.172.108.169.108.17.108.168.11.167.111.167.112.167.111.166.115.165.114.164.116.163.115.162.12.164.118.16.119.16.12.16.12.16.123.158.124.158.124.157.124.155.126.156.127.155.128.152.128.153.13.153.13.151.132.151.131.15.133.149.135.149.135.146.135.147.136.146.137.145.138.144.14.144.14.142.141.142.142.14.142.14.142.139.146.138.144.137.145.137.148.136.147.135.148.133.149.133.15.133.15.132.151.13.153.129.153.13.155.127.154.126.155.126.156.125.157.124.158.123.158.122.159.122.16.119.16.12.161.12.162.116.164.117.163.115.164.115.166.113.165.114.165.111.168.11.167.11.169.11.169.107.169.106.17.106.172.104.172.105.173.102.172.103.175.099.174.1.175.1.176.096.176.097.178.096.176.093.178.094.18.093.18.092.18.09.181.088.18.088.184.088.181.086.184.085.183.083.185.082.185.083.186.081.185.08.187.076.187.078.189.077.188.074.19.075.188.072.19.072.191.07.19.07.193.069.193.066.192.067.192.065.195.062.194.063.196.062.194.059.196.06.198.057.196.057.197.056.198.054.198.052.2.052.197.05.202.05.2.05.2.046.202.045.202.045.2.043.204.043.203.042.203.04.204.037.205.038.205.036.205.034.205.034.206.033.207.03.207.029.207.029.208.027.209.025.208.025.209.023.209.022.21.021.21.02.21.018.211.016.212.015.212.014.213.013.212.012.212.01.214.008.212.008.216.007.214.003.214.004.216.004h.429l.216-.004.214-.004.214-.003.214-.007.214-.008.214-.009.212-.009.212-.012.213-.013.212-.014.21-.015.212-.016.21-.018.211-.02.209-.021.21-.022.209-.023.208-.025.209-.025.208-.027.207-.03.207-.028.207-.03.205-.033.206-.034.205-.034.205-.036.204-.038.205-.038.203-.04.203-.04.203-.044.201-.043.202-.045.201-.045.202-.047.2-.048.199-.05.2-.05.199-.053.198-.052.198-.054.197-.056.196-.057.198-.058.196-.06.194-.058.196-.062.194-.063.193-.062.194-.065.192-.067.193-.066.192-.069.19-.07.191-.07.191-.072.189-.072.189-.075.188-.074.187-.077.187-.076.187-.079.187-.079.186-.08.185-.084.183-.082.185-.083.184-.085.181-.086.182-.088.182-.088.181-.088.18-.09.18-.092.178-.093.178-.094.178-.093.178-.096.176-.097.176-.097.175-.099.174-.1.175-.1.172-.102.173-.102.17-.105.173-.104.17-.106.17-.106.17-.108.168-.11.167-.11.168-.109.165-.111.165-.114.166-.113.164-.115.163-.115.164-.117.162-.117.161-.119.16-.12.16-.119.159-.122.158-.122.158-.123.157-.124.156-.125.155-.126.154-.126.155-.128.153-.13.15-.129.154-.13.149-.13.151-.134.15-.133.147-.133.147-.135.146-.136.147-.137.144-.137.144-.138.144-.138.142-.14.142-.14.14-.143.14-.142.14-.144.137-.144.139-.145.136-.146.135-.147.135-.146.135-.15.133-.149.131-.149.131-.15.132-.152.13-.153.127-.153.128-.152.127-.155.126-.156.124-.155.124-.157.122-.158.123-.158.122-.16.12-.16.12-.16.118-.16.117-.164.117-.162.115-.163.115-.164.113-.165.113-.166.112-.167.111-.167.11-.167.108-.168.108-.17.106-.17.106-.17.104-.171.104-.173.103-.17.102-.175.101-.173.099-.174.099-.176.097-.175.097-.176.095-.178.096-.178.093-.178.092-.178.092-.18.09-.181.09-.18.088-.182.086-.181.086-.184.085-.183.084-.183.083-.184.08-.185.082-.187.079-.185.079-.187.077-.187.076-.187.075-.19.074-.188.072-.19.072-.191.072-.19.068-.191.068-.19.067-.193.067-.194.064-.193.063-.194.063-.194.061-.194.061-.196.06-.196.057-.196.056-.196.056-.198.054-.198.054-.2.052-.197.05-.2.049-.2.048-.2.047-.2.047-.202.045-.201.043-.203.041-.202.042-.203.04-.203.037-.205.038-.205.036-.203.034-.207.034-.205.032-.207.03-.207.031-.205.027-.208.027-.207.027-.209.025-.208.022-.209.023-.21.02-.209.02-.212.018-.21.016-.21.016-.211.015-.212.012-.212.011-.213.01-.214.01-.212.007-.214.005-.214.006-.214.003-.215.002-.214.01-3.215h119.554V91.342H642.998z" fill="#fff"/><path d="M951.652 399.999v311.656H639.997V592.09c20.016 0 36.265-16.25 36.265-36.264 0-20.015-16.249-36.264-36.265-36.264V399.999H759.56c0 20.014 16.25 36.264 36.264 36.264 20.016 0 36.265-16.25 36.265-36.264h119.562z" fill="#e44d26"/><path d="M759.56 400.233l.004.235.004.232.005.234.006.234.009.232.009.232.01.231.013.232.014.23.017.233.016.23.018.23.02.228.021.23.022.229.025.228.025.228.027.227.027.227.03.226.031.227.033.224.034.227.034.225.036.223.038.224.04.223.04.223.042.223.043.222.045.22.047.222.046.221.049.22.05.219.05.22.055.219.054.217.054.218.057.217.058.216.059.216.061.216.061.214.063.213.065.214.065.214.068.213.068.212.069.21.07.212.073.21.072.21.076.21.075.208.076.207.079.209.08.206.08.205.081.205.084.205.085.205.084.203.087.204.088.203.09.201.09.202.091.2.092.199.094.2.095.199.097.198.097.196.097.196.1.196.102.196.102.194.103.194.104.193.104.192.108.192.106.19.11.192.11.188.11.19.112.188.114.187.113.185.115.187.117.185.117.184.119.183.12.184.12.181.12.182.125.18.124.18.124.18.126.177.128.178.127.176.13.177.13.174.13.174.132.173.133.173.135.172.135.171.136.17.137.168.138.17.139.166.14.168.142.165.142.165.142.164.144.164.146.162.145.161.148.16.147.16.15.159.149.158.15.156.152.157.153.156.152.153.155.155.155.15.156.154.157.15.158.15.158.147.16.15.162.145.16.146.164.145.161.144.166.144.163.142.168.14.165.14.17.14.166.138.17.138.17.135.171.135.17.135.173.133.175.133.174.13.175.13.176.13.176.128.176.125.18.126.178.126.18.124.18.123.181.122.182.12.183.119.184.119.185.116.185.117.185.115.187.116.187.113.187.111.19.112.19.11.19.107.191.108.19.106.193.106.194.105.193.102.194.103.196.1.196.1.196.098.198.097.197.096.198.095.2.093.2.094.2.092.2.09.203.088.202.088.203.086.203.086.205.085.205.083.205.08.207.081.207.08.206.079.209.077.209.075.208.074.21.074.21.072.211.07.213.07.21.068.214.067.212.065.214.064.214.063.216.063.214.06.217.059.216.057.216.058.217.056.22.054.217.052.22.052.22.048.218.049.222.049.22.045.222.044.223.044.221.043.223.04.223.039.225.038.225.036.224.036.225.034.225.032.226.03.227.03.226.028.229.027.228.025.229.024.228.023.228.02.23.02.23.018.23.018.23.014.231.014.232.013.232.01.232.012.234.007.232.007.233.005.234.004.234.002h.469l.234-.002.234-.004.233-.005.232-.007.234-.007.232-.011.232-.011.23-.013.232-.014.23-.014.23-.018.23-.018.23-.02.23-.02.227-.023.229-.024.228-.025.227-.027.228-.029.227-.028.224-.03.227-.033.225-.034.224-.036.225-.036.223-.038.225-.04.223-.04.221-.042.223-.044.221-.044.221-.045.22-.049.22-.049.22-.048.22-.052.217-.052.218-.054.217-.056.218-.058.216-.057.215-.06.216-.059.216-.063.214-.063.214-.064.212-.065.212-.067.213-.068.212-.07.21-.07.21-.072.21-.074.21-.074.208-.075.209-.077.206-.08.207-.079.207-.08.205-.081.205-.083.203-.085.205-.086.203-.086.202-.088.201-.089.201-.09.202-.091.2-.094.199-.093.198-.095.197-.096.198-.097.196-.099.196-.099.194-.1.195-.103.194-.102.194-.105.19-.106.193-.106.19-.108.191-.108.189-.11.189-.11.189-.112.187-.113.187-.116.185-.115.185-.117.185-.116.184-.12.181-.118.184-.12.18-.122.181-.123.18-.124.178-.126.178-.126.178-.125.176-.128.176-.13.175-.13.174-.13.173-.133.172-.133.173-.135.17-.135.17-.135.17-.138.168-.139.167-.138.167-.14.166-.14.165-.143.164-.144.163-.144.162-.145.162-.146.16-.145.16-.15.16-.147.157-.15.158-.15.156-.153.155-.151.155-.155.152-.153.153-.156.151-.157.151-.156.15-.158.149-.159.147-.16.148-.16.145-.161.144-.162.146-.164.142-.164.142-.165.142-.165.138-.168.14-.167.14-.169.136-.169.136-.169.135-.17.133-.173.133-.173.133-.173.132-.174.13-.174.129-.177.127-.176.128-.178.126-.178.124-.18.124-.18.122-.18.123-.18.12-.182.12-.184.12-.183.116-.184.117-.185.115-.187.113-.185.114-.187.111-.189.112-.189.11-.188.107-.191.108-.19.106-.193.106-.192.104-.193.103-.194.102-.194.101-.196.099-.196.099-.196.097-.196.097-.198.094-.2.095-.2.092-.199.091-.2.09-.2.09-.202.088-.203.087-.204.084-.203.085-.205.082-.205.083-.205.08-.205.08-.206.077-.209.078-.207.075-.208.076-.21.072-.21.072-.21.071-.212.069-.21.068-.212.067-.213.066-.214.065-.214.063-.213.06-.214.062-.216.06-.216.057-.216.056-.217.055-.218.054-.217.053-.22.052-.22.05-.219.049-.219.046-.221.047-.221.043-.221.045-.222.042-.223.04-.223.039-.223.037-.224.038-.223.034-.225.034-.227.033-.224.03-.227.031-.226.027-.227.027-.227.025-.228.023-.228.024-.229.021-.23.02-.228.018-.23.016-.23.017-.232.012-.23.013-.233.012-.231.01-.232.006-.232.008-.234.005-.234.004-.232.001-.235.002-.234h119.562v311.656H639.997V592.09h.235l.234-.002.234-.004.234-.005.231-.007.234-.008.232-.01.232-.011.23-.013.232-.014.23-.014.23-.018.23-.018.23-.02.23-.02.228-.023.228-.024.228-.025.227-.027.228-.029.227-.028.225-.033.226-.032.225-.033.225-.035.224-.036.223-.038.225-.04.223-.041.221-.041.223-.044.221-.045.222-.045.219-.048.221-.049.22-.05.219-.05.217-.052.218-.054.218-.056.217-.058.216-.057.216-.06.215-.059.216-.063.214-.063.214-.065.212-.064.212-.067.213-.068.212-.07.21-.07.21-.072.21-.074.21-.074.208-.075.209-.078.206-.079.207-.079.207-.08.205-.082.205-.082.203-.085.205-.086.203-.086.202-.089.201-.088.201-.091.202-.09.2-.094.199-.093.198-.096.198-.095.197-.097.196-.099.196-.1.195-.101.194-.1.194-.105.194-.103.193-.106.19-.106.19-.108.191-.108.19-.111.188-.11.189-.111.187-.114.187-.115.185-.115.185-.117.185-.117.184-.118.181-.119.184-.12.18-.123.181-.122.18-.124.178-.126.178-.126.178-.126.176-.129.176-.128.175-.13.174-.132.175-.131.17-.133.173-.135.171-.135.17-.137.17-.137.167-.138.167-.138.167-.14.166-.14.165-.143.164-.144.164-.144.161-.145.162-.146.162-.146.158-.149.16-.147.159-.151.156-.15.156-.152.155-.151.155-.155.153-.155.152-.154.151-.157.151-.156.15-.158.149-.159.147-.16.148-.16.145-.162.146-.161.144-.164.142-.164.142-.165.142-.166.14-.167.139-.167.138-.169.137-.169.137-.17.134-.172.133-.17.134-.173.133-.173.13-.174.13-.176.13-.175.127-.178.128-.176.126-.178.124-.18.124-.18.122-.18.123-.181.12-.182.12-.183.12-.183.116-.184.117-.185.115-.187.113-.185.114-.189.111-.187.112-.189.11-.189.107-.19.108-.19.106-.193.106-.193.105-.192.102-.194.103-.194.1-.196.1-.196.098-.196.097-.198.097-.198.094-.198.095-.2.092-.199.091-.2.09-.2.09-.202.088-.203.087-.204.084-.203.085-.205.082-.205.083-.205.081-.207.08-.206.076-.207.078-.209.075-.206.076-.21.072-.21.072-.21.072-.212.068-.21.068-.213.067-.212.066-.214.065-.214.063-.214.061-.214.061-.215.06-.216.057-.218.056-.215.056-.218.054-.218.052-.219.052-.22.05-.219.049-.22.046-.22.047-.221.043-.222.045-.22.042-.224.04-.223.039-.223.038-.224.037-.223.034-.225.035-.227.032-.224.03-.227.031-.227.027-.226.027-.228.025-.227.025-.228.022-.229.022-.23.02-.228.017-.23.017-.23.016-.233.014-.23.01-.232.013-.232.01-.232.007-.231.007-.234.005-.234.004-.232.002-.236.001-.233-.001-.234-.002-.234-.004-.234-.005-.233-.007-.234-.008-.232-.009-.232-.012-.232-.01-.232-.015-.23-.016-.232-.017-.23-.018-.23-.02-.229-.021-.23-.022-.228-.025-.228-.025-.227-.027-.228-.027-.227-.03-.227-.031-.226-.032-.225-.035-.226-.034-.225-.037-.223-.038-.225-.04-.223-.04-.223-.04-.223-.046-.22-.043-.222-.047-.221-.046-.221-.049-.22-.05-.22-.052-.219-.052-.219-.054-.217-.056-.218-.056-.216-.057-.217-.06-.216-.06-.216-.062-.214-.063-.214-.065-.214-.066-.214-.067-.212-.068-.212-.068-.21-.072-.213-.072-.21-.072-.209-.076-.21-.075-.207-.078-.208-.077-.207-.079-.207-.08-.207-.084-.205-.082-.205-.085-.205-.084-.203-.087-.203-.088-.203-.09-.202-.09-.201-.091-.2-.092-.2-.095-.199-.094-.198-.097-.197-.097-.198-.099-.196-.099-.196-.1-.196-.103-.194-.102-.195-.105-.192-.106-.192-.106-.193-.108-.19-.108-.19-.11-.19-.11-.188-.112-.187-.114-.19-.113-.184-.115-.187-.117-.186-.117-.183-.118-.184-.12-.183-.121-.182-.123-.181-.122-.18-.124-.18-.124-.18-.126-.178-.128-.176-.127-.178-.13-.174-.13-.176-.13-.175-.133-.172-.134-.173-.133-.17-.134-.172-.137-.17-.137-.17-.138-.169-.139-.167-.14-.167-.142-.165-.142-.166-.142-.163-.144-.164-.146-.162-.145-.162-.148-.16-.147-.16-.15-.158-.149-.158-.15-.157-.152-.156-.152-.155-.153-.154-.155-.155-.155-.151-.156-.153-.156-.15-.159-.15-.16-.148-.158-.149-.162-.146-.162-.145-.161-.146-.164-.144-.164-.144-.165-.142-.166-.14-.167-.14-.167-.139-.167-.138-.17-.137-.17-.136-.17-.135-.173-.135-.171-.133-.175-.131-.174-.132-.175-.13-.176-.129-.176-.129-.178-.126-.178-.126-.178-.126-.18-.124-.181-.122-.18-.12-.184-.123-.181-.118-.184-.119-.185-.117-.185-.117-.185-.115-.187-.115-.187-.113-.189-.112-.189-.11-.189-.11-.19-.109-.19-.108-.191-.106-.193-.104-.194-.104-.194-.105-.194-.1-.195-.101-.196-.1-.196-.1-.197-.097-.198-.095-.198-.095-.2-.094-.2-.093-.2-.09-.202-.092-.201-.088-.202-.088-.203-.086-.205-.087-.203-.084-.205-.083-.205-.08-.207-.082-.207-.079-.206-.079-.209-.077-.208-.076-.21-.074-.21-.073-.21-.072-.21-.07-.212-.07-.213-.069-.212-.066-.212-.065-.214-.065-.214-.063-.216-.063-.215-.059-.216-.06-.216-.057-.217-.057-.218-.056-.218-.054-.217-.052-.22-.05-.219-.05-.221-.05-.22-.048-.22-.045-.222-.045-.223-.043-.22-.041-.224-.042-.225-.04-.223-.037-.224-.036-.225-.036-.225-.032-.226-.033-.225-.032-.227-.029-.228-.029-.227-.027-.228-.025-.228-.023-.229-.024-.228-.02-.23-.02-.23-.017-.23-.018-.23-.014-.233-.015-.23-.012-.232-.011-.232-.01-.234-.008-.231-.007-.234-.006-.234-.003-.234-.002h-.235V399.999H759.56v.234zm-116.562 2.765v113.677l.016.002.248.02.25.021.246.022.248.025.247.025.248.029.246.029.245.03.246.033.245.032.244.036.243.036.245.038.242.04.243.04.241.044.243.043.24.045.24.047.24.048.24.05.239.053.237.052.24.054.237.056.235.057.236.058.236.059.235.063.236.061.233.065.232.066.234.067.232.068.232.07.23.07.23.072.23.076.229.074.228.077.229.077.226.08.227.08.226.083.225.083.225.084.224.086.223.089.223.088.222.09.22.091.222.092.22.095.219.094.219.097.218.097.217.1.216.1.216.102.215.103.214.104.214.106.213.106.212.108.21.108.21.111.21.112.21.113.208.113.209.115.206.117.205.117.205.119.205.12.204.123.203.122.201.122.201.126.2.126.2.127.2.128.197.13.198.13.196.132.194.133.196.133.192.137.195.135.19.138.193.139.188.138.191.142.189.142.187.142.187.144.185.146.185.145.184.148.183.15.183.148.18.151.18.151.18.153.18.155.176.153.178.156.174.157.175.158.174.16.173.16.172.16.171.162.17.163.168.164.17.165.166.166.166.167.165.167.164.17.162.17.162.17.161.172.16.172.159.175.158.174.158.176.155.177.154.178.155.178.153.18.15.18.152.18.15.184.147.182.147.185.146.183.145.187.144.187.144.187.142.19.14.188.14.19.14.191.136.193.136.192.135.194.135.194.133.196.131.196.132.198.13.198.127.198.127.2.126.2.124.2.124.204.123.203.12.203.12.205.12.205.118.205.115.207.115.206.115.209.114.21.111.209.11.21.11.213.107.212.106.212.106.214.105.214.102.216.1.214.102.217.099.218.097.217.097.218.095.22.094.22.093.22.09.22.092.224.088.223.086.223.086.223.085.225.084.226.081.225.081.226.08.227.078.228.076.229.075.23.074.228.072.23.072.232.07.232.068.232.067.232.065.234.064.234.063.233.062.236.059.236.06.235.057.237.054.238.055.237.053.24.05.238.05.24.049.239.047.24.045.242.044.24.042.243.041.243.04.243.038.242.037.245.034.245.035.244.032.245.03.246.03.246.026.247.025.246.026.248.023.248.02.248.02.249.02.25.016.25.014.25.014.25.011.251.01.25.01.252.007.253.005.252.004.252.004.253v.507l-.004.254-.004.252-.005.251-.007.254-.01.252-.01.25-.01.251-.015.25-.014.25-.017.25-.02.25-.02.248-.019.248-.023.248-.026.248-.025.247-.027.246-.028.247-.031.246-.032.244-.035.245-.034.244-.037.245-.038.243-.04.242-.041.243-.042.243-.044.24-.045.242-.047.24-.049.24-.05.24-.05.238-.053.24-.054.237-.055.237-.058.237-.06.236-.058.236-.062.235-.063.234-.064.234-.065.233-.067.232-.068.232-.07.232-.072.232-.072.23-.074.229-.075.23-.076.228-.079.229-.079.226-.08.227-.082.224-.084.227-.085.225-.086.223-.086.223-.088.223-.092.223-.09.22-.093.222-.094.22-.095.219-.097.217-.097.218-.1.217-.1.218-.1.214-.103.216-.105.214-.106.214-.106.212-.108.212-.11.212-.109.21-.111.21-.114.21-.115.208-.115.207-.115.207-.119.205-.118.206-.12.204-.121.205-.123.2-.124.204-.124.2-.126.201-.127.2-.128.197-.13.198-.13.198-.132.196-.133.196-.135.194-.135.194-.136.193-.137.192-.138.19-.14.191-.14.19-.143.188-.144.187-.144.187-.145.187-.146.183-.147.186-.148.181-.15.184-.15.181-.151.18-.153.18-.155.178-.154.178-.155.176-.158.176-.158.175-.159.174-.16.173-.16.17-.161.171-.164.171-.164.17-.165.166-.166.168-.167.165-.169.166-.169.163-.169.164-.17.162-.173.16-.173.16-.174.16-.175.158-.174.156-.178.157-.176.154-.18.153-.18.153-.18.151-.181.151-.182.15-.183.149-.184.147-.185.146-.185.145-.187.144-.187.142-.189.142-.19.142-.19.139-.192.138-.19.139-.195.135-.192.136-.196.133-.194.133-.196.132-.198.13-.198.13-.2.128-.199.128-.2.126-.2.125-.202.123-.203.122-.204.122-.205.12-.205.12-.205.116-.206.117-.209.115-.209.113-.208.114-.21.111-.21.112-.211.108-.212.107-.213.108-.214.105-.214.104-.215.102-.216.103-.216.099-.217.1-.218.098-.22.097-.217.093-.221.096-.221.091-.221.092-.222.09-.223.088-.223.088-.224.086-.225.085-.225.083-.226.082-.227.081-.226.08-.229.077-.228.077-.229.074-.23.075-.23.072-.23.07-.232.07-.232.069-.234.066-.232.067-.235.064-.234.062-.235.063-.234.059-.238.057-.237.058-.235.056-.24.054-.237.052-.24.052-.238.05-.241.049-.24.047-.24.045-.243.043-.241.043-.243.041-.242.04-.245.038-.243.035-.244.036-.245.033-.246.032-.245.03-.246.03-.248.028-.247.025-.248.026-.248.021-.248.022-.248.02-.016.001v113.677h305.655V402.998H834.976l-.002.016-.02.25-.02.248-.023.248-.025.249-.025.246-.027.246-.029.247-.03.246-.033.245-.034.244-.034.246-.038.243-.037.243-.04.243-.041.242-.042.243-.045.241-.045.241-.046.24-.049.24-.05.24-.05.238-.053.24-.054.237-.055.237-.058.238-.06.235-.059.236-.06.235-.064.234-.064.234-.065.233-.067.232-.068.232-.07.232-.072.23-.072.232-.074.23-.075.229-.076.228-.079.229-.079.226-.08.227-.082.226-.084.225-.085.225-.086.223-.086.225-.09.22-.09.224-.09.22-.094.222-.093.22-.095.219-.098.217-.097.218-.099.217-.1.218-.1.216-.105.214-.103.214-.106.214-.106.212-.108.212-.11.212-.11.21-.11.211-.114.209-.113.208-.117.207-.115.207-.119.207-.118.204-.12.204-.121.205-.123.201-.124.203-.124.2-.126.201-.127.2-.128.2-.13.197-.13.196-.132.196-.133.196-.135.194-.135.195-.136.192-.137.192-.139.19-.14.192-.14.188-.142.19-.144.186-.144.187-.144.187-.147.184-.147.185-.148.183-.15.182-.15.181-.151.18-.153.18-.155.178-.154.178-.157.176-.156.176-.158.175-.159.174-.16.173-.16.17-.163.172-.162.17-.164.17-.165.167-.167.167-.166.165-.169.166-.169.163-.169.164-.17.162-.173.162-.173.16-.174.158-.175.158-.174.156-.178.157-.178.155-.178.152-.18.153-.18.151-.182.151-.181.15-.184.149-.183.147-.185.146-.185.146-.187.143-.19.142-.186.142-.19.143-.191.138-.19.138-.192.139-.194.137-.194.134-.194.133-.194.133-.196.134-.198.129-.198.13-.2.129-.2.126-.199.126-.201.126-.201.122-.204.124-.203.12-.205.12-.205.12-.207.116-.206.117-.207.115-.209.115-.208.112-.21.111-.211.112-.21.108-.213.108-.214.108-.212.104-.215.104-.214.103-.216.102-.216.1-.218.1-.217.097-.22.097-.219.095-.22.094-.22.091-.222.092-.22.09-.224.088-.223.088-.224.086-.225.085-.225.083-.226.082-.227.081-.227.08-.228.077-.228.077-.229.076-.23.073-.23.072-.23.072-.232.068-.232.069-.234.068-.234.065-.232.065-.235.063-.236.06-.235.06-.236.058-.237.057-.237.056-.238.054-.237.054-.24.05-.238.05-.241.049-.24.047-.24.045-.243.043-.241.043-.243.041-.243.04-.244.038-.243.036-.244.036-.245.032-.246.032-.245.03-.246.03-.248.028-.247.026-.248.025-.246.021-.25.022-.248.02-.25.018-.25.016-.25.016-.25.013-.25.012-.252.011-.251.009-.252.007-.252.006-.253.003-.254.002-.253.002-.254-.002-.252-.002-.253-.003-.252-.006-.252-.007-.251-.009-.252-.01-.25-.013-.252-.013-.25-.016-.25-.016-.248-.018-.25-.02-.248-.022-.248-.021-.246-.025-.248-.026-.247-.028-.246-.03-.245-.03-.246-.032-.245-.032-.244-.036-.245-.036-.242-.038-.243-.04-.243-.041-.24-.043-.244-.043-.24-.045-.24-.047-.24-.049-.24-.05-.239-.05-.239-.054-.237-.054-.238-.056-.235-.057-.238-.058-.233-.06-.236-.06-.235-.063-.234-.065-.234-.065-.232-.068-.232-.069-.232-.068-.23-.072-.23-.072-.23-.073-.229-.076-.23-.077-.226-.078-.227-.079-.227-.08-.226-.083-.227-.083-.223-.085-.224-.086-.223-.088-.223-.088-.221-.09-.223-.092-.22-.091-.22-.094-.22-.095-.218-.097-.217-.097-.218-.1-.216-.1-.216-.102-.215-.103-.214-.104-.214-.104-.212-.108-.213-.108-.21-.108-.21-.112-.21-.111-.211-.113-.207-.114-.208-.115-.207-.117-.205-.117-.205-.118-.205-.12-.203-.121-.204-.124-.201-.122-.201-.126-.202-.126-.2-.126-.197-.13-.198-.129-.198-.13-.196-.133-.196-.133-.194-.133-.194-.134-.192-.137-.191-.139-.192-.138-.19-.138-.19-.143-.189-.142-.187-.142-.187-.143-.185-.146-.185-.146-.183-.147-.184-.15-.181-.149-.182-.149-.182-.153-.178-.153-.18-.152-.176-.155-.178-.157-.174-.156-.176-.158-.173-.158-.173-.16-.172-.162-.171-.162-.169-.164-.17-.163-.168-.166-.167-.165-.166-.167-.165-.168-.164-.169-.163-.17-.162-.171-.16-.171-.16-.173-.16-.174-.157-.175-.158-.176-.155-.176-.154-.178-.155-.178-.153-.18-.15-.18-.152-.181-.15-.182-.147-.183-.147-.185-.147-.184-.144-.187-.146-.187-.142-.187-.142-.189-.14-.188-.14-.191-.139-.19-.137-.193-.136-.192-.135-.195-.135-.194-.133-.196-.131-.196-.132-.196-.129-.198-.128-.2-.127-.199-.126-.2-.124-.2-.124-.204-.123-.201-.122-.205-.119-.204-.118-.204-.119-.207-.117-.207-.115-.207-.113-.208-.113-.21-.112-.21-.11-.21-.11-.212-.107-.212-.106-.212-.106-.214-.105-.214-.102-.214-.1-.216-.101-.218-.1-.215-.098-.218-.096-.22-.095-.219-.093-.219-.094-.221-.092-.221-.09-.223-.088-.221-.088-.225-.084-.223-.087-.225-.082-.225-.081-.226-.081-.227-.08-.226-.078-.229-.076-.228-.075-.228-.074-.23-.074-.233-.07-.23-.07-.232-.068-.232-.067-.232-.066-.233-.063-.234-.063-.234-.061-.235-.062-.236-.057-.235-.058-.238-.055-.237-.054-.237-.052-.24-.053-.239-.048-.239-.049-.24-.046-.24-.047-.241-.043-.24-.043-.244-.04-.242-.04-.241-.04-.245-.035-.244-.034-.245-.034-.244-.033-.245-.03-.246-.03-.247-.026-.246-.027-.246-.023-.249-.024-.248-.021-.248-.02-.248v-.018H642.998z" fill="#fff"/><g font-family="'Helvetica-Bold','Helvetica'" font-weight="700" font-size="88.827" fill="#fff"><text x="189.42" y="273.229" transform="matrix(1.40265 0 0 1.45028 416.006 270.397)">h</text><text x="238.349" y="273.229" transform="matrix(1.40265 0 0 1.45028 416.006 270.397)">t</text><text x="263.488" y="273.229" transform="matrix(1.40265 0 0 1.45028 416.006 270.397)">m</text><text x="335.363" y="273.229" transform="matrix(1.40265 0 0 1.45028 416.006 270.397)">l</text></g><g font-family="'Helvetica-Bold','Helvetica'" font-weight="700" font-size="88.827" fill="#fff"><text x="220.721" y="273.229" transform="matrix(1.40265 0 0 1.45028 416.006 -39.867)">c<tspan x="265.681" y="273.229">s</tspan></text><text x="310.641" y="273.229" transform="matrix(1.40265 0 0 1.45028 416.006 -39.867)">s</text></g><text x="247.766" y="273.229" font-family="'Helvetica-Bold','Helvetica'" font-weight="700" font-size="88.827" fill="#fff" transform="matrix(1.40265 0 0 1.45028 105.474 270.397)">w<tspan x="310.641" y="273.229">a</tspan></text><text x="292.18" y="273.229" font-family="'Helvetica-Bold','Helvetica'" font-weight="700" font-size="88.827" transform="matrix(1.40265 0 0 1.45028 106.63 -39.867)">j<tspan x="310.641" y="273.229">s</tspan></text><g font-family="Helvetica" font-size="59.512" fill-opacity=".2"><text x="280.662" y="273.229" transform="matrix(1.40265 0 0 1.45028 -34.983 -201.717)">(</text><text x="316.548" y="273.229" transform="matrix(1.40265 0 0 1.45028 -34.983 -201.717)">)<tspan x="339.937" y="273.229">;</tspan></text></g><g><text x="323.373" y="273.229" font-family="Helvetica" font-size="59.512" fill="#fff" fill-opacity=".2" transform="matrix(1.40265 0 0 1.45028 -91.713 113.858)">$<tspan x="360.042px 380.147px" y="273.229px 273.229px">..</tspan></text></g><g><text x="293.043" y="273.229" font-family="Helvetica" font-size="59.512" fill="#fff" fill-opacity=".2" transform="matrix(1.40265 0 0 1.45028 266.669 -201.717)">{<tspan x="316.49px 336.595px" y="273.229px 273.229px">;}</tspan></text></g><g font-family="Helvetica" font-size="59.512" fill="#fff" fill-opacity=".2"><text x="256.741" y="273.229" transform="matrix(1.40265 0 0 1.45028 314.694 113.858)">&lt;</text><text x="301.612" y="273.229" transform="matrix(1.40265 0 0 1.45028 314.694 113.858)">/<tspan x="321.717" y="273.229">&gt;</tspan></text></g></svg>